<svg width="702" height="702" viewBox="0 0 702 702" fill="none" xmlns="http://www.w3.org/2000/svg"><path d="M351.257 701.004c193.576 0 350.5-156.924 350.5-350.5S544.833.003906 351.257.003906c-59.066 0-114.719 14.610094-163.543 40.413694-18.834 9.9542-21.112 35.0985-6.048 50.1623l87.567 87.5671c9.808 9.808 24.507 12.374 37.9 8.77 14.068-3.785 28.86-5.804 44.124-5.804 93.552 0 169.39 75.839 169.39 169.391 0 93.552-75.838 169.39-169.39 169.39-15.318 0-30.161-2.033-44.273-5.844-13.404-3.619-28.12-1.058-37.937 8.759l-87.536 87.536c-15.059 15.059-12.789 40.194 6.034 50.156 48.865 25.859 104.578 40.503 163.712 40.503z" fill="#fff"/><path d="M66.0875 554.336c11.4373 15.973 34.3075 16.594 48.1995 2.702l81.71-81.71c12.135-12.135 12.992-31.259 5.042-46.469-12.247-23.431-19.173-50.084-19.173-78.355 0-28.321 6.95-55.018 19.238-78.479 7.968-15.215 7.12-34.356-5.024-46.501l-81.694-81.693c-13.886-13.887-36.7482-13.272-48.1902 2.689C25.005 203.981.756836 274.411.756836 350.504c0 76.026 24.205664 146.399 65.330664 203.832zM351.257 266.341c46.482 0 84.162 37.681 84.162 84.163s-37.68 84.162-84.162 84.162c-46.482 0-84.163-37.68-84.163-84.162 0-46.482 37.681-84.163 84.163-84.163z" fill="#fff"/></svg>