<svg width="702" height="702" viewBox="0 0 702 702" fill="none" xmlns="http://www.w3.org/2000/svg"><path d="M351.148 701.004c193.576 0 350.5-156.924 350.5-350.5S544.724.003906 351.148.003906C292.083.003906 236.43 14.614 187.606 40.4176c-18.835 9.9542-21.112 35.0985-6.048 50.1623l87.567 87.5671c9.807 9.808 24.506 12.374 37.9 8.77 14.068-3.785 28.86-5.804 44.123-5.804 93.552 0 169.391 75.839 169.391 169.391 0 93.552-75.839 169.39-169.391 169.39-15.317 0-30.16-2.033-44.273-5.844-13.403-3.619-28.119-1.058-37.936 8.759l-87.537 87.536c-15.059 15.059-12.789 40.194 6.035 50.156 48.864 25.859 104.578 40.503 163.711 40.503z" fill="#000"/><path d="M65.9791 554.336c11.4373 15.973 34.3079 16.594 48.1989 2.702l81.711-81.71c12.135-12.135 12.992-31.259 5.042-46.469-12.248-23.431-19.173-50.084-19.173-78.355 0-28.321 6.95-55.018 19.237-78.479 7.969-15.215 7.121-34.356-5.024-46.501l-81.693-81.693c-13.887-13.887-36.7486-13.272-48.1906 2.689C24.8966 203.981.648438 274.411.648438 350.504c0 76.026 24.205662 146.399 65.330662 203.832zM351.148 266.341c46.482 0 84.163 37.681 84.163 84.163s-37.681 84.162-84.163 84.162c-46.481 0-84.162-37.68-84.162-84.162 0-46.482 37.681-84.163 84.162-84.163z" fill="#000"/></svg>