<svg width="702" height="702" viewBox="0 0 702 702" fill="none" xmlns="http://www.w3.org/2000/svg"><path d="M351.227 701.324c193.575 0 350.5-156.924 350.5-350.5S544.802.324219 351.227.324219c-59.066 0-114.719 14.610181-163.543 40.413681-18.835 9.9542-21.112 35.0985-6.048 50.1623l87.567 87.5678c9.808 9.807 24.506 12.373 37.9 8.77 14.068-3.786 28.86-5.804 44.124-5.804 93.551 0 169.39 75.838 169.39 169.39 0 93.552-75.839 169.391-169.39 169.391-15.318 0-30.161-2.033-44.274-5.845-13.403-3.619-28.119-1.058-37.936 8.759l-87.537 87.536c-15.059 15.059-12.788 40.195 6.035 50.156 48.864 25.859 104.578 40.503 163.712 40.503z" fill="#A8E840"/><path d="M66.0572 554.657c11.4373 15.972 34.3078 16.593 48.1998 2.702l81.71-81.71c12.135-12.136 12.992-31.26 5.042-46.469-12.247-23.432-19.173-50.085-19.173-78.356 0-28.32 6.95-55.017 19.238-78.479 7.968-15.214 7.12-34.356-5.025-46.501l-81.693-81.693c-13.887-13.887-36.7484-13.272-48.1905 2.69C24.9747 204.301.726562 274.731.726562 350.824c0 76.027 24.205638 146.399 65.330638 203.833zM351.227 266.662c46.481 0 84.162 37.681 84.162 84.162 0 46.482-37.681 84.163-84.162 84.163-46.482 0-84.163-37.681-84.163-84.163 0-46.481 37.681-84.162 84.163-84.162z" fill="#A8E840"/></svg>