<?xml version="1.0" encoding="UTF-8"?>
<svg id="Layer_1" data-name="Layer 1" xmlns="http://www.w3.org/2000/svg" viewBox="0 0 701 701">
  <defs>
    <style>
      .cls-1 {
        fill: #96c93d;
      }
    </style>
  </defs>
  <path class="cls-1" d="m350.5,701c193.58,0,350.5-156.92,350.5-350.5S544.08,0,350.5,0c-59.07,0-114.72,14.61-163.54,40.41-18.84,9.95-21.11,35.1-6.05,50.16l87.57,87.57c9.81,9.81,24.51,12.37,37.9,8.77,14.07-3.79,28.86-5.8,44.12-5.8,93.55,0,169.39,75.84,169.39,169.39s-75.84,169.39-169.39,169.39c-15.32,0-30.16-2.03-44.27-5.84-13.4-3.62-28.12-1.06-37.94,8.76l-87.54,87.54c-15.06,15.06-12.79,40.2,6.04,50.16,48.86,25.86,104.58,40.5,163.71,40.5h0Z"/>
  <path class="cls-1" d="m65.33,554.33c11.44,15.97,34.31,16.59,48.2,2.7l81.71-81.71c12.13-12.14,12.99-31.26,5.04-46.47-12.25-23.43-19.17-50.08-19.17-78.36s6.95-55.02,19.24-78.48c7.97-15.21,7.12-34.36-5.02-46.5l-81.69-81.69c-13.89-13.89-36.75-13.27-48.19,2.69C24.25,203.98,0,274.41,0,350.5s24.21,146.4,65.33,203.83Zm285.17-287.99c46.48,0,84.16,37.68,84.16,84.16s-37.68,84.16-84.16,84.16-84.16-37.68-84.16-84.16,37.68-84.16,84.16-84.16h0Z"/>
</svg>