<svg width="2001" height="2000" viewBox="0 0 2001 2000" fill="none" xmlns="http://www.w3.org/2000/svg">
<rect width="2000" height="2000" transform="translate(0.870117)" fill="#131416"/>
<path d="M349.969 1156.52C436.618 1156.52 506.86 1086.34 506.86 999.763C506.86 913.186 436.618 843.002 349.969 843.002C323.53 843.002 298.619 849.536 276.764 861.077C268.333 865.529 267.313 876.775 274.057 883.513L313.253 922.676C317.643 927.063 324.223 928.211 330.218 926.599C336.515 924.906 343.137 924.003 349.969 924.003C391.845 924.003 425.792 957.922 425.792 999.763C425.792 1041.6 391.845 1075.52 349.969 1075.52C343.112 1075.52 336.469 1074.61 330.151 1072.91C324.152 1071.29 317.564 1072.44 313.169 1076.83L273.987 1115.98C267.246 1122.71 268.262 1133.95 276.688 1138.41C298.561 1149.98 323.499 1156.52 349.969 1156.52Z" fill="#A8E840"/>
<path d="M222.32 1090.93C227.44 1098.07 237.678 1098.35 243.896 1092.14L280.471 1055.59C285.903 1050.16 286.286 1041.61 282.728 1034.81C277.246 1024.33 274.146 1012.41 274.146 999.763C274.146 987.097 277.257 975.157 282.757 964.664C286.324 957.859 285.944 949.297 280.508 943.865L243.941 907.329C237.724 901.118 227.491 901.393 222.369 908.532C203.931 934.231 193.077 965.731 193.077 999.763C193.077 1033.77 203.912 1065.24 222.32 1090.93Z" fill="#A8E840"/>
<path d="M349.969 962.121C370.775 962.121 387.642 978.974 387.642 999.763C387.642 1020.55 370.775 1037.4 349.969 1037.4C329.162 1037.4 312.296 1020.55 312.296 999.763C312.296 978.974 329.162 962.121 349.969 962.121Z" fill="#A8E840"/>
<path d="M695.7 1104.07C684.435 1104.07 674.39 1101.53 665.565 1096.47C656.741 1091.4 649.794 1084.46 644.724 1075.65V1101.25H611.773V895.83H649.512V979.688C654.769 970.87 661.622 963.929 670.071 958.864C678.708 953.799 688.753 951.266 700.206 951.266C709.782 951.266 718.513 953.33 726.399 957.457C734.284 961.397 741.044 966.931 746.676 974.06C752.497 981.189 756.909 989.349 759.913 998.542C763.105 1007.73 764.701 1017.58 764.701 1028.09C764.701 1038.59 762.917 1048.44 759.35 1057.64C755.97 1066.83 751.183 1074.99 744.987 1082.12C738.791 1089.06 731.468 1094.5 723.019 1098.44C714.758 1102.19 705.651 1104.07 695.7 1104.07ZM685.28 1071.99C691.288 1071.99 696.733 1070.86 701.615 1068.61C706.684 1066.17 711.003 1062.98 714.57 1059.04C718.325 1055.1 721.141 1050.51 723.019 1045.25C725.084 1039.81 726.117 1034.19 726.117 1028.37C726.117 1020.3 724.427 1012.89 721.048 1006.14C717.856 999.198 713.349 993.664 707.529 989.537C701.896 985.41 695.231 983.346 687.533 983.346C682.088 983.346 676.831 984.659 671.761 987.286C666.88 989.724 662.467 993.101 658.524 997.416C654.769 1001.73 651.765 1006.61 649.512 1012.05V1047.22C650.639 1050.98 652.422 1054.35 654.863 1057.35C657.492 1060.36 660.496 1062.98 663.876 1065.23C667.255 1067.3 670.729 1068.99 674.296 1070.3C678.051 1071.42 681.712 1071.99 685.28 1071.99Z" fill="white"/>
<path d="M777.315 1057.64C777.315 1048.07 779.944 1039.72 785.201 1032.59C790.646 1025.27 798.156 1019.65 807.732 1015.71C817.307 1011.77 828.291 1009.8 840.683 1009.8C846.879 1009.8 853.169 1010.27 859.553 1011.2C865.936 1012.14 871.475 1013.64 876.169 1015.71V1007.83C876.169 998.448 873.353 991.225 867.72 986.16C862.275 981.095 854.108 978.562 843.218 978.562C835.144 978.562 827.446 979.969 820.124 982.783C812.801 985.597 805.103 989.724 797.03 995.165L784.919 970.401C794.683 964.023 804.634 959.239 814.773 956.05C825.099 952.861 835.895 951.266 847.161 951.266C868.19 951.266 884.524 956.519 896.165 967.025C907.994 977.53 913.908 992.538 913.908 1012.05V1059.04C913.908 1062.98 914.566 1065.8 915.88 1067.48C917.382 1069.17 919.729 1070.21 922.921 1070.58V1101.25C919.541 1101.82 916.443 1102.28 913.627 1102.66C910.998 1103.04 908.745 1103.22 906.867 1103.22C899.357 1103.22 893.631 1101.53 889.688 1098.16C885.933 1094.78 883.586 1090.65 882.647 1085.78L881.802 1078.18C875.418 1086.43 867.439 1092.81 857.863 1097.31C848.287 1101.82 838.524 1104.07 828.573 1104.07C818.809 1104.07 809.985 1102.1 802.099 1098.16C794.401 1094.03 788.299 1088.5 783.793 1081.56C779.474 1074.43 777.315 1066.45 777.315 1057.64ZM869.128 1065.23C871.194 1062.98 872.883 1060.73 874.198 1058.48C875.512 1056.23 876.169 1054.17 876.169 1052.29V1037.38C871.663 1035.5 866.781 1034.09 861.524 1033.15C856.267 1032.03 851.291 1031.47 846.598 1031.47C836.834 1031.47 828.761 1033.62 822.377 1037.94C816.181 1042.07 813.083 1047.6 813.083 1054.54C813.083 1058.29 814.116 1061.86 816.181 1065.23C818.246 1068.61 821.25 1071.33 825.193 1073.39C829.136 1075.46 833.83 1076.49 839.275 1076.49C844.908 1076.49 850.447 1075.46 855.891 1073.39C861.336 1071.14 865.749 1068.42 869.128 1065.23Z" fill="white"/>
<path d="M1000.71 1104.07C988.134 1104.07 976.118 1102 964.664 1097.88C953.211 1093.75 943.354 1087.65 935.093 1079.59L948.611 1055.1C957.436 1062.23 966.073 1067.48 974.522 1070.86C983.158 1074.24 991.42 1075.93 999.306 1075.93C1006.63 1075.93 1012.45 1074.61 1016.77 1071.99C1021.27 1069.36 1023.53 1065.42 1023.53 1060.17C1023.53 1056.6 1022.31 1053.88 1019.86 1052.01C1017.42 1049.94 1013.86 1048.16 1009.16 1046.66C1004.66 1045.16 999.118 1043.47 992.546 1041.6C981.656 1038.03 972.55 1034.56 965.228 1031.18C957.905 1027.81 952.366 1023.59 948.611 1018.52C945.044 1013.27 943.26 1006.61 943.26 998.542C943.26 988.786 945.701 980.438 950.583 973.497C955.652 966.368 962.599 960.834 971.424 956.894C980.436 952.955 990.95 950.985 1002.97 950.985C1013.48 950.985 1023.43 952.673 1032.82 956.05C1042.21 959.239 1050.75 964.492 1058.45 971.808L1043.24 995.728C1035.73 989.912 1028.6 985.691 1021.84 983.065C1015.08 980.25 1008.22 978.843 1001.28 978.843C997.334 978.843 993.579 979.312 990.012 980.251C986.632 981.189 983.816 982.783 981.562 985.034C979.497 987.098 978.465 990.1 978.465 994.039C978.465 997.604 979.403 1000.42 981.281 1002.48C983.346 1004.36 986.35 1006.05 990.293 1007.55C994.424 1009.05 999.399 1010.74 1005.22 1012.61C1017.05 1015.99 1027 1019.46 1035.07 1023.02C1043.33 1026.59 1049.53 1031 1053.66 1036.25C1057.79 1041.31 1059.86 1048.35 1059.86 1057.35C1059.86 1071.99 1054.51 1083.43 1043.8 1091.69C1033.1 1099.94 1018.74 1104.07 1000.71 1104.07Z" fill="white"/>
<path d="M1151.15 1104.07C1139.32 1104.07 1128.62 1102.1 1119.04 1098.16C1109.46 1094.03 1101.3 1088.5 1094.54 1081.56C1087.78 1074.43 1082.52 1066.36 1078.77 1057.35C1075.2 1048.16 1073.42 1038.5 1073.42 1028.37C1073.42 1014.3 1076.51 1001.45 1082.71 989.818C1089.09 978.187 1098.11 968.901 1109.75 961.959C1121.57 954.831 1135.47 951.266 1151.43 951.266C1167.58 951.266 1181.38 954.831 1192.83 961.959C1204.28 968.901 1213.01 978.187 1219.02 989.818C1225.22 1001.26 1228.31 1013.64 1228.31 1026.96C1228.31 1029.21 1228.22 1031.56 1228.03 1034C1227.85 1036.25 1227.66 1038.13 1227.47 1039.63H1113.41C1114.16 1047.13 1116.32 1053.7 1119.89 1059.32C1123.64 1064.95 1128.33 1069.27 1133.97 1072.27C1139.79 1075.08 1145.98 1076.49 1152.55 1076.49C1160.07 1076.49 1167.11 1074.71 1173.68 1071.14C1180.44 1067.39 1185.04 1062.51 1187.48 1056.51L1219.87 1065.52C1216.3 1073.02 1211.14 1079.68 1204.38 1085.49C1197.8 1091.31 1190.01 1095.91 1181 1099.28C1171.99 1102.47 1162.04 1104.07 1151.15 1104.07ZM1112.56 1015.71H1189.73C1188.98 1008.2 1186.82 1001.73 1183.25 996.29C1179.87 990.662 1175.37 986.348 1169.73 983.346C1164.1 980.157 1157.81 978.562 1150.87 978.562C1144.11 978.562 1137.91 980.157 1132.28 983.346C1126.83 986.348 1122.33 990.662 1118.76 996.29C1115.38 1001.73 1113.31 1008.2 1112.56 1015.71Z" fill="white"/>
<path d="M1248.21 895.83H1285.95V1053.98C1285.95 1060.73 1287.07 1065.33 1289.33 1067.77C1291.58 1070.02 1294.68 1071.14 1298.62 1071.14C1301.62 1071.14 1304.72 1070.77 1307.91 1070.02C1311.11 1069.27 1313.92 1068.33 1316.36 1067.2L1321.43 1095.91C1316.36 1098.35 1310.45 1100.22 1303.69 1101.53C1296.93 1102.85 1290.83 1103.5 1285.38 1103.5C1273.55 1103.5 1264.35 1100.41 1257.78 1094.22C1251.4 1087.84 1248.21 1078.83 1248.21 1067.2V895.83Z" fill="white"/>
<path d="M1335.06 1101.25V953.799H1372.8V1101.25H1335.06ZM1335.06 933.256V895.83H1372.8V933.256H1335.06Z" fill="white"/>
<path d="M1633.28 1101.25H1595.54V1018.52C1595.54 1006.89 1593.47 998.354 1589.34 992.914C1585.4 987.286 1579.86 984.472 1572.73 984.472C1565.4 984.472 1558.36 987.379 1551.6 993.195C1545.03 998.823 1540.34 1006.23 1537.52 1015.43V1101.25H1499.78V1018.52C1499.78 1006.7 1497.72 998.073 1493.59 992.632C1489.64 987.192 1484.11 984.472 1476.97 984.472C1469.65 984.472 1462.61 987.286 1455.85 992.914C1449.28 998.542 1444.58 1005.95 1441.77 1015.14V1101.25H1404.03V953.799H1438.1V981.095C1443.74 971.527 1451.25 964.211 1460.64 959.145C1470.02 953.893 1480.82 951.266 1493.02 951.266C1505.23 951.266 1514.71 954.268 1521.47 960.271C1528.42 966.274 1532.83 973.684 1534.71 982.502C1540.71 972.371 1548.32 964.68 1557.52 959.427C1566.91 953.986 1577.42 951.266 1589.06 951.266C1598.26 951.266 1605.68 952.955 1611.31 956.331C1617.13 959.521 1621.64 963.929 1624.83 969.557C1628.02 974.998 1630.18 981.189 1631.31 988.13C1632.62 995.071 1633.28 1002.11 1633.28 1009.23V1101.25Z" fill="white"/>
<path d="M1731.76 1104.07C1719.93 1104.07 1709.22 1102.1 1699.65 1098.16C1690.07 1094.03 1681.91 1088.5 1675.15 1081.56C1668.39 1074.43 1663.13 1066.36 1659.38 1057.35C1655.81 1048.16 1654.02 1038.5 1654.02 1028.37C1654.02 1014.3 1657.12 1001.45 1663.32 989.818C1669.7 978.187 1678.71 968.901 1690.36 961.959C1702.18 954.831 1716.08 951.266 1732.04 951.266C1748.18 951.266 1761.98 954.831 1773.44 961.959C1784.89 968.901 1793.62 978.187 1799.63 989.818C1805.83 1001.26 1808.92 1013.64 1808.92 1026.96C1808.92 1029.21 1808.83 1031.56 1808.64 1034C1808.45 1036.25 1808.27 1038.13 1808.08 1039.63H1694.02C1694.77 1047.13 1696.93 1053.7 1700.49 1059.32C1704.25 1064.95 1708.94 1069.27 1714.58 1072.27C1720.4 1075.08 1726.59 1076.49 1733.16 1076.49C1740.67 1076.49 1747.72 1074.71 1754.29 1071.14C1761.05 1067.39 1765.65 1062.51 1768.09 1056.51L1800.47 1065.52C1796.91 1073.02 1791.74 1079.68 1784.98 1085.49C1778.41 1091.31 1770.62 1095.91 1761.61 1099.28C1752.6 1102.47 1742.65 1104.07 1731.76 1104.07ZM1693.17 1015.71H1770.34C1769.59 1008.2 1767.43 1001.73 1763.86 996.29C1760.48 990.662 1755.98 986.348 1750.34 983.346C1744.71 980.157 1738.42 978.562 1731.47 978.562C1724.71 978.562 1718.52 980.157 1712.89 983.346C1707.44 986.348 1702.93 990.662 1699.37 996.29C1695.99 1001.73 1693.92 1008.2 1693.17 1015.71Z" fill="white"/>
</svg>
