<svg width="2000" height="2000" viewBox="0 0 2000 2000" fill="none" xmlns="http://www.w3.org/2000/svg">
<rect width="2000" height="2000" fill="url(#paint0_linear_1429_3970)"/>
<path d="M349.099 1156.52C435.747 1156.52 505.99 1086.34 505.99 999.763C505.99 913.186 435.747 843.002 349.099 843.002C322.66 843.002 297.749 849.536 275.894 861.077C267.463 865.529 266.443 876.775 273.187 883.513L312.383 922.676C316.773 927.063 323.353 928.211 329.348 926.599C335.645 924.906 342.266 924.003 349.099 924.003C390.974 924.003 424.922 957.922 424.922 999.763C424.922 1041.6 390.974 1075.52 349.099 1075.52C342.242 1075.52 335.598 1074.61 329.281 1072.91C323.282 1071.29 316.694 1072.44 312.299 1076.83L273.117 1115.98C266.376 1122.71 267.392 1133.95 275.818 1138.41C297.691 1149.98 322.629 1156.52 349.099 1156.52Z" fill="black"/>
<path d="M221.45 1090.93C226.57 1098.07 236.808 1098.35 243.026 1092.14L279.6 1055.59C285.033 1050.16 285.416 1041.61 281.858 1034.81C276.376 1024.33 273.276 1012.41 273.276 999.763C273.276 987.097 276.386 975.157 281.886 964.664C285.453 957.859 285.074 949.297 279.637 943.865L243.071 907.329C236.854 901.118 226.62 901.393 221.499 908.532C203.061 934.231 192.207 965.731 192.207 999.763C192.207 1033.77 203.042 1065.24 221.45 1090.93Z" fill="black"/>
<path d="M349.099 962.121C369.905 962.121 386.772 978.974 386.772 999.763C386.772 1020.55 369.905 1037.4 349.099 1037.4C328.292 1037.4 311.426 1020.55 311.426 999.763C311.426 978.974 328.292 962.121 349.099 962.121Z" fill="black"/>
<path d="M694.83 1104.07C683.565 1104.07 673.52 1101.53 664.695 1096.47C655.871 1091.4 648.924 1084.46 643.854 1075.65V1101.25H610.903V895.83H648.642V979.688C653.899 970.87 660.752 963.929 669.201 958.864C677.838 953.799 687.883 951.266 699.336 951.266C708.912 951.266 717.643 953.33 725.528 957.457C733.414 961.397 740.174 966.931 745.806 974.06C751.627 981.189 756.039 989.349 759.043 998.542C762.235 1007.73 763.831 1017.58 763.831 1028.09C763.831 1038.59 762.047 1048.44 758.48 1057.64C755.1 1066.83 750.312 1074.99 744.116 1082.12C737.92 1089.06 730.598 1094.5 722.149 1098.44C713.888 1102.19 704.781 1104.07 694.83 1104.07ZM684.41 1071.99C690.418 1071.99 695.863 1070.86 700.745 1068.61C705.814 1066.17 710.132 1062.98 713.7 1059.04C717.455 1055.1 720.271 1050.51 722.149 1045.25C724.214 1039.81 725.247 1034.19 725.247 1028.37C725.247 1020.3 723.557 1012.89 720.177 1006.14C716.986 999.198 712.479 993.664 706.659 989.537C701.026 985.41 694.361 983.346 686.663 983.346C681.218 983.346 675.961 984.659 670.891 987.286C666.01 989.724 661.597 993.101 657.654 997.416C653.899 1001.73 650.895 1006.61 648.642 1012.05V1047.22C649.769 1050.98 651.552 1054.35 653.993 1057.35C656.622 1060.36 659.626 1062.98 663.005 1065.23C666.385 1067.3 669.859 1068.99 673.426 1070.3C677.181 1071.42 680.842 1071.99 684.41 1071.99Z" fill="black"/>
<path d="M776.445 1057.64C776.445 1048.07 779.074 1039.72 784.331 1032.59C789.776 1025.27 797.286 1019.65 806.862 1015.71C816.437 1011.77 827.421 1009.8 839.813 1009.8C846.009 1009.8 852.299 1010.27 858.683 1011.2C865.066 1012.14 870.605 1013.64 875.299 1015.71V1007.83C875.299 998.448 872.483 991.225 866.85 986.16C861.405 981.095 853.238 978.562 842.348 978.562C834.274 978.562 826.576 979.969 819.254 982.783C811.931 985.597 804.233 989.724 796.16 995.165L784.049 970.401C793.813 964.023 803.764 959.239 813.903 956.05C824.229 952.861 835.025 951.266 846.291 951.266C867.319 951.266 883.654 956.519 895.295 967.025C907.124 977.53 913.038 992.538 913.038 1012.05V1059.04C913.038 1062.98 913.695 1065.8 915.01 1067.48C916.512 1069.17 918.859 1070.21 922.051 1070.58V1101.25C918.671 1101.82 915.573 1102.28 912.757 1102.66C910.128 1103.04 907.875 1103.22 905.997 1103.22C898.487 1103.22 892.761 1101.53 888.818 1098.16C885.062 1094.78 882.716 1090.65 881.777 1085.78L880.932 1078.18C874.548 1086.43 866.568 1092.81 856.993 1097.31C847.417 1101.82 837.654 1104.07 827.703 1104.07C817.939 1104.07 809.115 1102.1 801.229 1098.16C793.531 1094.03 787.429 1088.5 782.923 1081.56C778.604 1074.43 776.445 1066.45 776.445 1057.64ZM868.258 1065.23C870.324 1062.98 872.013 1060.73 873.328 1058.48C874.642 1056.23 875.299 1054.17 875.299 1052.29V1037.38C870.793 1035.5 865.911 1034.09 860.654 1033.15C855.397 1032.03 850.421 1031.47 845.727 1031.47C835.964 1031.47 827.891 1033.62 821.507 1037.94C815.311 1042.07 812.213 1047.6 812.213 1054.54C812.213 1058.29 813.245 1061.86 815.311 1065.23C817.376 1068.61 820.38 1071.33 824.323 1073.39C828.266 1075.46 832.96 1076.49 838.405 1076.49C844.038 1076.49 849.576 1075.46 855.021 1073.39C860.466 1071.14 864.879 1068.42 868.258 1065.23Z" fill="black"/>
<path d="M999.844 1104.07C987.264 1104.07 975.247 1102 963.794 1097.88C952.341 1093.75 942.484 1087.65 934.223 1079.59L947.741 1055.1C956.566 1062.23 965.202 1067.48 973.651 1070.86C982.288 1074.24 990.55 1075.93 998.435 1075.93C1005.76 1075.93 1011.58 1074.61 1015.9 1071.99C1020.4 1069.36 1022.66 1065.42 1022.66 1060.17C1022.66 1056.6 1021.44 1053.88 1018.99 1052.01C1016.55 1049.94 1012.99 1048.16 1008.29 1046.66C1003.79 1045.16 998.248 1043.47 991.676 1041.6C980.786 1038.03 971.68 1034.56 964.358 1031.18C957.035 1027.81 951.496 1023.59 947.741 1018.52C944.174 1013.27 942.39 1006.61 942.39 998.542C942.39 988.786 944.831 980.438 949.712 973.497C954.782 966.368 961.729 960.834 970.553 956.894C979.566 952.955 990.08 950.985 1002.1 950.985C1012.61 950.985 1022.56 952.673 1031.95 956.05C1041.34 959.239 1049.88 964.492 1057.58 971.808L1042.37 995.728C1034.86 989.912 1027.73 985.691 1020.97 983.065C1014.21 980.25 1007.35 978.843 1000.41 978.843C996.464 978.843 992.709 979.312 989.141 980.251C985.762 981.189 982.945 982.783 980.692 985.034C978.627 987.098 977.594 990.1 977.594 994.039C977.594 997.604 978.533 1000.42 980.411 1002.48C982.476 1004.36 985.48 1006.05 989.423 1007.55C993.554 1009.05 998.529 1010.74 1004.35 1012.61C1016.18 1015.99 1026.13 1019.46 1034.2 1023.02C1042.46 1026.59 1048.66 1031 1052.79 1036.25C1056.92 1041.31 1058.99 1048.35 1058.99 1057.35C1058.99 1071.99 1053.64 1083.43 1042.93 1091.69C1032.23 1099.94 1017.87 1104.07 999.844 1104.07Z" fill="black"/>
<path d="M1150.28 1104.07C1138.45 1104.07 1127.75 1102.1 1118.17 1098.16C1108.59 1094.03 1100.43 1088.5 1093.67 1081.56C1086.91 1074.43 1081.65 1066.36 1077.9 1057.35C1074.33 1048.16 1072.55 1038.5 1072.55 1028.37C1072.55 1014.3 1075.64 1001.45 1081.84 989.818C1088.22 978.187 1097.24 968.901 1108.88 961.959C1120.7 954.831 1134.6 951.266 1150.56 951.266C1166.71 951.266 1180.51 954.831 1191.96 961.959C1203.41 968.901 1212.14 978.187 1218.15 989.818C1224.35 1001.26 1227.44 1013.64 1227.44 1026.96C1227.44 1029.21 1227.35 1031.56 1227.16 1034C1226.98 1036.25 1226.79 1038.13 1226.6 1039.63H1112.54C1113.29 1047.13 1115.45 1053.7 1119.02 1059.32C1122.77 1064.95 1127.46 1069.27 1133.1 1072.27C1138.92 1075.08 1145.11 1076.49 1151.68 1076.49C1159.2 1076.49 1166.24 1074.71 1172.81 1071.14C1179.57 1067.39 1184.17 1062.51 1186.61 1056.51L1219 1065.52C1215.43 1073.02 1210.26 1079.68 1203.51 1085.49C1196.93 1091.31 1189.14 1095.91 1180.13 1099.28C1171.12 1102.47 1161.17 1104.07 1150.28 1104.07ZM1111.69 1015.71H1188.86C1188.11 1008.2 1185.95 1001.73 1182.38 996.29C1179 990.662 1174.5 986.348 1168.86 983.346C1163.23 980.157 1156.94 978.562 1149.99 978.562C1143.24 978.562 1137.04 980.157 1131.41 983.346C1125.96 986.348 1121.46 990.662 1117.89 996.29C1114.51 1001.73 1112.44 1008.2 1111.69 1015.71Z" fill="black"/>
<path d="M1247.34 895.83H1285.08V1053.98C1285.08 1060.73 1286.2 1065.33 1288.46 1067.77C1290.71 1070.02 1293.81 1071.14 1297.75 1071.14C1300.75 1071.14 1303.85 1070.77 1307.04 1070.02C1310.24 1069.27 1313.05 1068.33 1315.49 1067.2L1320.56 1095.91C1315.49 1098.35 1309.58 1100.22 1302.82 1101.53C1296.06 1102.85 1289.96 1103.5 1284.51 1103.5C1272.68 1103.5 1263.48 1100.41 1256.91 1094.22C1250.53 1087.84 1247.34 1078.83 1247.34 1067.2V895.83Z" fill="black"/>
<path d="M1334.19 1101.25V953.799H1371.93V1101.25H1334.19ZM1334.19 933.256V895.83H1371.93V933.256H1334.19Z" fill="black"/>
<path d="M1632.41 1101.25H1594.67V1018.52C1594.67 1006.89 1592.6 998.354 1588.47 992.914C1584.53 987.286 1578.99 984.472 1571.86 984.472C1564.53 984.472 1557.49 987.379 1550.73 993.195C1544.16 998.823 1539.47 1006.23 1536.65 1015.43V1101.25H1498.91V1018.52C1498.91 1006.7 1496.85 998.073 1492.72 992.632C1488.77 987.192 1483.23 984.472 1476.1 984.472C1468.78 984.472 1461.74 987.286 1454.98 992.914C1448.41 998.542 1443.71 1005.95 1440.9 1015.14V1101.25H1403.16V953.799H1437.23V981.095C1442.87 971.527 1450.38 964.211 1459.77 959.145C1469.15 953.893 1479.95 951.266 1492.15 951.266C1504.36 951.266 1513.84 954.268 1520.6 960.271C1527.55 966.274 1531.96 973.684 1533.84 982.502C1539.84 972.371 1547.45 964.68 1556.65 959.427C1566.04 953.986 1576.55 951.266 1588.19 951.266C1597.39 951.266 1604.81 952.955 1610.44 956.331C1616.26 959.521 1620.77 963.929 1623.96 969.557C1627.15 974.998 1629.31 981.189 1630.44 988.13C1631.75 995.071 1632.41 1002.11 1632.41 1009.23V1101.25Z" fill="black"/>
<path d="M1730.89 1104.07C1719.06 1104.07 1708.35 1102.1 1698.78 1098.16C1689.2 1094.03 1681.04 1088.5 1674.28 1081.56C1667.52 1074.43 1662.26 1066.36 1658.51 1057.35C1654.94 1048.16 1653.15 1038.5 1653.15 1028.37C1653.15 1014.3 1656.25 1001.45 1662.45 989.818C1668.83 978.187 1677.84 968.901 1689.49 961.959C1701.31 954.831 1715.21 951.266 1731.17 951.266C1747.31 951.266 1761.11 954.831 1772.57 961.959C1784.02 968.901 1792.75 978.187 1798.76 989.818C1804.96 1001.26 1808.05 1013.64 1808.05 1026.96C1808.05 1029.21 1807.96 1031.56 1807.77 1034C1807.58 1036.25 1807.4 1038.13 1807.21 1039.63H1693.15C1693.9 1047.13 1696.06 1053.7 1699.62 1059.32C1703.38 1064.95 1708.07 1069.27 1713.71 1072.27C1719.53 1075.08 1725.72 1076.49 1732.29 1076.49C1739.8 1076.49 1746.84 1074.71 1753.42 1071.14C1760.18 1067.39 1764.78 1062.51 1767.22 1056.51L1799.6 1065.52C1796.04 1073.02 1790.87 1079.68 1784.11 1085.49C1777.54 1091.31 1769.75 1095.91 1760.74 1099.28C1751.73 1102.47 1741.78 1104.07 1730.89 1104.07ZM1692.3 1015.71H1769.47C1768.72 1008.2 1766.56 1001.73 1762.99 996.29C1759.61 990.662 1755.11 986.348 1749.47 983.346C1743.84 980.157 1737.55 978.562 1730.6 978.562C1723.84 978.562 1717.65 980.157 1712.02 983.346C1706.57 986.348 1702.06 990.662 1698.5 996.29C1695.12 1001.73 1693.05 1008.2 1692.3 1015.71Z" fill="black"/>
<defs>
<linearGradient id="paint0_linear_1429_3970" x1="1999.2" y1="-9.19995e-05" x2="-1087.8" y2="3086.99" gradientUnits="userSpaceOnUse">
<stop stop-color="#B5FF3D"/>
<stop offset="1" stop-color="#54B86A"/>
</linearGradient>
</defs>
</svg>
