<svg width="2000" height="2000" viewBox="0 0 2000 2000" fill="none" xmlns="http://www.w3.org/2000/svg">
<rect width="2000" height="2000" fill="white"/>
<path d="M348.809 1156.36C435.413 1156.36 505.619 1086.21 505.619 999.681C505.619 913.15 435.413 843.002 348.809 843.002C322.385 843.002 297.486 849.533 275.643 861.067C267.216 865.517 266.197 876.757 272.937 883.491L312.113 922.635C316.501 927.019 323.077 928.166 329.069 926.555C335.363 924.863 341.981 923.961 348.809 923.961C390.663 923.961 424.593 957.862 424.593 999.681C424.593 1041.5 390.663 1075.4 348.809 1075.4C341.957 1075.4 335.316 1074.49 329.003 1072.79C323.006 1071.17 316.422 1072.32 312.029 1076.7L272.868 1115.83C266.13 1122.57 267.146 1133.8 275.568 1138.25C297.429 1149.81 322.354 1156.36 348.809 1156.36Z" fill="#1B1C1F"/>
<path d="M221.228 1090.8C226.345 1097.94 236.577 1098.21 242.792 1092L279.348 1055.48C284.777 1050.05 285.16 1041.51 281.604 1034.71C276.124 1024.23 273.026 1012.32 273.026 999.681C273.026 987.022 276.135 975.088 281.632 964.6C285.198 957.799 284.818 949.242 279.385 943.813L242.837 907.295C236.624 901.087 226.395 901.362 221.276 908.498C202.848 934.183 192 965.666 192 999.681C192 1033.67 202.829 1065.12 221.228 1090.8Z" fill="#1B1C1F"/>
<path d="M348.809 962.059C369.605 962.059 386.463 978.903 386.463 999.681C386.463 1020.46 369.605 1037.3 348.809 1037.3C328.014 1037.3 311.156 1020.46 311.156 999.681C311.156 978.903 328.014 962.059 348.809 962.059Z" fill="#1B1C1F"/>
<path d="M694.359 1103.93C683.099 1103.93 673.06 1101.4 664.24 1096.34C655.42 1091.28 648.476 1084.34 643.41 1075.53V1101.12H610.476V895.805H648.195V979.618C653.449 970.806 660.299 963.868 668.744 958.806C677.376 953.743 687.416 951.212 698.863 951.212C708.433 951.212 717.16 953.274 725.041 957.399C732.923 961.337 739.679 966.868 745.308 973.993C751.126 981.118 755.536 989.275 758.538 998.462C761.728 1007.65 763.324 1017.49 763.324 1027.99C763.324 1038.49 761.541 1048.34 757.975 1057.53C754.597 1066.71 749.812 1074.87 743.619 1081.99C737.427 1088.93 730.108 1094.37 721.663 1098.31C713.406 1102.06 704.305 1103.93 694.359 1103.93ZM683.944 1071.87C689.949 1071.87 695.391 1070.74 700.27 1068.49C705.337 1066.06 709.653 1062.87 713.219 1058.93C716.972 1054.99 719.787 1050.4 721.663 1045.15C723.728 1039.71 724.76 1034.09 724.76 1028.28C724.76 1020.21 723.071 1012.81 719.693 1006.06C716.503 999.119 711.999 993.587 706.181 989.462C700.552 985.337 693.89 983.275 686.196 983.275C680.754 983.275 675.499 984.587 670.433 987.212C665.553 989.65 661.143 993.025 657.203 997.337C653.449 1001.65 650.447 1006.53 648.195 1011.96V1047.12C649.321 1050.87 651.104 1054.24 653.543 1057.24C656.17 1060.24 659.173 1062.87 662.551 1065.12C665.929 1067.18 669.4 1068.87 672.966 1070.18C676.719 1071.31 680.378 1071.87 683.944 1071.87Z" fill="#1B1C1F"/>
<path d="M775.931 1057.53C775.931 1047.96 778.558 1039.62 783.813 1032.49C789.255 1025.18 796.761 1019.56 806.332 1015.62C815.902 1011.68 826.88 1009.71 839.266 1009.71C845.459 1009.71 851.745 1010.18 858.126 1011.12C864.506 1012.06 870.042 1013.56 874.733 1015.62V1007.74C874.733 998.369 871.919 991.15 866.289 986.087C860.847 981.025 852.684 978.493 841.799 978.493C833.73 978.493 826.036 979.9 818.717 982.712C811.399 985.525 803.705 989.65 795.635 995.087L783.531 970.337C793.29 963.962 803.235 959.181 813.369 955.993C823.69 952.806 834.481 951.212 845.74 951.212C866.758 951.212 883.084 956.462 894.719 966.962C906.542 977.462 912.453 992.462 912.453 1011.96V1058.93C912.453 1062.87 913.11 1065.68 914.423 1067.37C915.924 1069.06 918.27 1070.09 921.46 1070.46V1101.12C918.083 1101.68 914.986 1102.15 912.171 1102.53C909.544 1102.9 907.292 1103.09 905.416 1103.09C897.909 1103.09 892.186 1101.4 888.245 1098.03C884.492 1094.65 882.146 1090.53 881.208 1085.65L880.363 1078.06C873.983 1086.31 866.007 1092.68 856.437 1097.18C846.866 1101.68 837.108 1103.93 827.162 1103.93C817.404 1103.93 808.584 1101.96 800.702 1098.03C793.008 1093.9 786.909 1088.37 782.405 1081.43C778.089 1074.31 775.931 1066.34 775.931 1057.53ZM867.696 1065.12C869.76 1062.87 871.449 1060.62 872.763 1058.37C874.077 1056.12 874.733 1054.06 874.733 1052.18V1037.28C870.23 1035.4 865.35 1033.99 860.096 1033.06C854.842 1031.93 849.869 1031.37 845.177 1031.37C835.419 1031.37 827.35 1033.53 820.969 1037.84C814.776 1041.96 811.68 1047.49 811.68 1054.43C811.68 1058.18 812.712 1061.74 814.776 1065.12C816.841 1068.49 819.843 1071.21 823.784 1073.28C827.725 1075.34 832.416 1076.37 837.858 1076.37C843.488 1076.37 849.024 1075.34 854.466 1073.28C859.908 1071.03 864.318 1068.31 867.696 1065.12Z" fill="#1B1C1F"/>
<path d="M999.213 1103.93C986.639 1103.93 974.629 1101.87 963.182 1097.75C951.735 1093.62 941.883 1087.53 933.626 1079.46L947.137 1054.99C955.957 1062.12 964.59 1067.37 973.034 1070.74C981.667 1074.12 989.924 1075.81 997.805 1075.81C1005.12 1075.81 1010.94 1074.49 1015.26 1071.87C1019.76 1069.24 1022.01 1065.31 1022.01 1060.06C1022.01 1056.49 1020.79 1053.78 1018.35 1051.9C1015.91 1049.84 1012.35 1048.06 1007.66 1046.56C1003.15 1045.06 997.618 1043.37 991.049 1041.49C980.165 1037.93 971.064 1034.46 963.745 1031.09C956.426 1027.71 950.891 1023.49 947.137 1018.43C943.572 1013.18 941.789 1006.53 941.789 998.462C941.789 988.712 944.229 980.368 949.108 973.431C954.175 966.306 961.118 960.774 969.938 956.837C978.945 952.899 989.454 950.93 1001.46 950.93C1011.97 950.93 1021.92 952.618 1031.3 955.993C1040.69 959.181 1049.22 964.431 1056.92 971.743L1041.72 995.65C1034.21 989.837 1027.08 985.618 1020.32 982.993C1013.57 980.181 1006.72 978.775 999.776 978.775C995.835 978.775 992.082 979.243 988.516 980.181C985.138 981.118 982.323 982.712 980.071 984.962C978.007 987.025 976.975 990.025 976.975 993.962C976.975 997.525 977.913 1000.34 979.79 1002.4C981.854 1004.28 984.857 1005.96 988.798 1007.46C992.926 1008.96 997.899 1010.65 1003.72 1012.53C1015.54 1015.9 1025.48 1019.37 1033.55 1022.93C1041.81 1026.49 1048 1030.9 1052.13 1036.15C1056.26 1041.21 1058.33 1048.24 1058.33 1057.24C1058.33 1071.87 1052.98 1083.31 1042.28 1091.56C1031.58 1099.81 1017.23 1103.93 999.213 1103.93Z" fill="#1B1C1F"/>
<path d="M1149.57 1103.93C1137.74 1103.93 1127.05 1101.96 1117.48 1098.03C1107.91 1093.9 1099.74 1088.37 1092.99 1081.43C1086.23 1074.31 1080.98 1066.24 1077.22 1057.24C1073.66 1048.06 1071.88 1038.4 1071.88 1028.28C1071.88 1014.21 1074.97 1001.37 1081.17 989.744C1087.55 978.118 1096.55 968.837 1108.19 961.899C1120.01 954.774 1133.9 951.212 1149.85 951.212C1165.99 951.212 1179.78 954.774 1191.23 961.899C1202.67 968.837 1211.4 978.118 1217.41 989.744C1223.6 1001.18 1226.69 1013.56 1226.69 1026.87C1226.69 1029.12 1226.6 1031.46 1226.41 1033.9C1226.23 1036.15 1226.04 1038.03 1225.85 1039.53H1111.85C1112.6 1047.03 1114.76 1053.59 1118.32 1059.21C1122.07 1064.84 1126.77 1069.15 1132.4 1072.15C1138.21 1074.96 1144.41 1076.37 1150.97 1076.37C1158.48 1076.37 1165.52 1074.59 1172.09 1071.03C1178.84 1067.28 1183.44 1062.4 1185.88 1056.4L1218.25 1065.4C1214.68 1072.9 1209.52 1079.56 1202.77 1085.37C1196.2 1091.18 1188.41 1095.78 1179.4 1099.15C1170.4 1102.34 1160.45 1103.93 1149.57 1103.93ZM1111 1015.62H1188.13C1187.38 1008.12 1185.22 1001.65 1181.66 996.212C1178.28 990.587 1173.77 986.275 1168.15 983.275C1162.52 980.087 1156.23 978.493 1149.29 978.493C1142.53 978.493 1136.34 980.087 1130.71 983.275C1125.27 986.275 1120.76 990.587 1117.2 996.212C1113.82 1001.65 1111.75 1008.12 1111 1015.62Z" fill="#1B1C1F"/>
<path d="M1246.58 895.805H1284.3V1053.87C1284.3 1060.62 1285.42 1065.21 1287.67 1067.65C1289.93 1069.9 1293.02 1071.03 1296.96 1071.03C1299.97 1071.03 1303.06 1070.65 1306.25 1069.9C1309.44 1069.15 1312.26 1068.21 1314.7 1067.09L1319.76 1095.78C1314.7 1098.21 1308.79 1100.09 1302.03 1101.4C1295.27 1102.71 1289.18 1103.37 1283.73 1103.37C1271.91 1103.37 1262.72 1100.28 1256.15 1094.09C1249.77 1087.71 1246.58 1078.71 1246.58 1067.09V895.805Z" fill="#1B1C1F"/>
<path d="M1333.38 1101.12V953.743H1371.1V1101.12H1333.38ZM1333.38 933.211V895.805H1371.1V933.211H1333.38Z" fill="#1B1C1F"/>
<path d="M1631.45 1101.12H1593.73V1018.43C1593.73 1006.81 1591.66 998.275 1587.53 992.837C1583.59 987.212 1578.06 984.4 1570.93 984.4C1563.61 984.4 1556.57 987.306 1549.81 993.119C1543.25 998.744 1538.55 1006.15 1535.74 1015.34V1101.12H1498.02V1018.43C1498.02 1006.62 1495.96 997.994 1491.83 992.556C1487.89 987.118 1482.35 984.4 1475.22 984.4C1467.9 984.4 1460.86 987.212 1454.11 992.837C1447.54 998.462 1442.85 1005.87 1440.03 1015.06V1101.12H1402.31V953.743H1436.37V981.025C1442 971.462 1449.51 964.149 1458.89 959.087C1468.28 953.837 1479.07 951.212 1491.26 951.212C1503.46 951.212 1512.94 954.212 1519.69 960.212C1526.64 966.212 1531.05 973.618 1532.92 982.431C1538.93 972.306 1546.53 964.618 1555.73 959.368C1565.11 953.931 1575.62 951.212 1587.25 951.212C1596.45 951.212 1603.86 952.899 1609.49 956.274C1615.31 959.462 1619.81 963.868 1623 969.493C1626.19 974.931 1628.35 981.118 1629.48 988.056C1630.79 994.994 1631.45 1002.02 1631.45 1009.15V1101.12Z" fill="#1B1C1F"/>
<path d="M1729.87 1103.93C1718.05 1103.93 1707.35 1101.96 1697.78 1098.03C1688.21 1093.9 1680.05 1088.37 1673.29 1081.43C1666.54 1074.31 1661.28 1066.24 1657.53 1057.24C1653.96 1048.06 1652.18 1038.4 1652.18 1028.28C1652.18 1014.21 1655.28 1001.37 1661.47 989.744C1667.85 978.118 1676.86 968.837 1688.49 961.899C1700.32 954.774 1714.2 951.212 1730.15 951.212C1746.29 951.212 1760.08 954.774 1771.53 961.899C1782.98 968.837 1791.71 978.118 1797.71 989.744C1803.9 1001.18 1807 1013.56 1807 1026.87C1807 1029.12 1806.91 1031.46 1806.72 1033.9C1806.53 1036.15 1806.34 1038.03 1806.15 1039.53H1692.15C1692.9 1047.03 1695.06 1053.59 1698.63 1059.21C1702.38 1064.84 1707.07 1069.15 1712.7 1072.15C1718.52 1074.96 1724.71 1076.37 1731.28 1076.37C1738.79 1076.37 1745.82 1074.59 1752.39 1071.03C1759.15 1067.28 1763.74 1062.4 1766.18 1056.4L1798.55 1065.4C1794.99 1072.9 1789.83 1079.56 1783.07 1085.37C1776.5 1091.18 1768.72 1095.78 1759.71 1099.15C1750.7 1102.34 1740.76 1103.93 1729.87 1103.93ZM1691.31 1015.62H1768.44C1767.68 1008.12 1765.53 1001.65 1761.96 996.212C1758.58 990.587 1754.08 986.275 1748.45 983.275C1742.82 980.087 1736.53 978.493 1729.59 978.493C1722.83 978.493 1716.64 980.087 1711.01 983.275C1705.57 986.275 1701.07 990.587 1697.5 996.212C1694.12 1001.65 1692.06 1008.12 1691.31 1015.62Z" fill="#1B1C1F"/>
</svg>
