<svg width="1341" height="821" viewBox="0 0 1341 821" fill="none" xmlns="http://www.w3.org/2000/svg"><path d="M670.48 469.137c129.269 0 234.061-104.814 234.061-234.11C904.541 105.732 799.749.917969 670.48.917969c-39.454 0-76.629 9.764031-109.239 27.008031-12.563 6.6429-14.082 23.4182-4.034 33.4683l58.511 58.5237c6.542 6.543 16.347 8.255 25.28 5.85 9.4-2.532 19.283-3.882 29.482-3.882 62.474 0 113.118 50.655 113.118 113.141 0 62.486-50.644 113.141-113.118 113.142-10.235 0-20.152-1.36-29.582-3.909-8.94-2.416-18.756-.707-25.304 5.843l-58.491 58.502c-10.045 10.047-8.53 26.816 4.025 33.464 32.637 17.281 69.852 27.068 109.352 27.068z" fill="#A8E840"/><path d="M480.063 371.196c7.63 10.655 22.885 11.07 32.151 1.802l54.601-54.613c8.095-8.096 8.667-20.855 3.362-31.001-8.185-15.656-12.814-33.466-12.814-52.357 0-18.924 4.645-36.763 12.857-52.438 5.317-10.15 4.751-22.921-3.35-31.023l-54.589-54.6012c-9.263-9.2649-24.513-8.8546-32.146 1.7935-27.517 38.3837-43.716 85.4347-43.716 136.2687 0 50.791 16.171 97.803 43.644 136.169zM670.48 178.813c31.041 0 56.203 25.168 56.203 56.214 0 31.047-25.162 56.215-56.203 56.215-31.04 0-56.203-25.168-56.203-56.215 0-31.046 25.163-56.214 56.203-56.214z" fill="#A8E840"/><path d="M94.5318 820.917c-12.6097 0-23.8533-2.838-33.7308-8.514-9.8776-5.675-17.6536-13.453-23.3279-23.332v28.693H.589844V587.59H42.8322v93.961c5.8845-9.879 13.5554-17.657 23.0126-23.332 9.6674-5.676 20.911-8.514 33.7309-8.514 10.7183 0 20.4903 2.312 29.3173 6.937 8.827 4.414 16.393 10.615 22.697 18.603 6.515 7.988 11.454 17.132 14.817 27.432 3.573 10.3 5.359 21.335 5.359 33.107 0 11.771-1.997 22.807-5.99 33.107-3.783 10.3-9.142 19.444-16.077 27.432-6.935 7.777-15.132 13.873-24.589 18.288-9.247 4.204-19.44 6.306-30.5782 6.306zm-11.6639-35.945c6.7251 0 12.8198-1.261 18.2841-3.784 5.674-2.733 10.508-6.306 14.501-10.72 4.203-4.415 7.356-9.565 9.457-15.45 2.312-6.096 3.468-12.402 3.468-18.919 0-9.039-1.892-17.342-5.674-24.909-3.573-7.778-8.617-13.979-15.132-18.603-6.305-4.625-13.7656-6.937-22.3822-6.937-6.0947 0-11.9792 1.472-17.6535 4.414-5.4642 2.733-10.403 6.517-14.8164 11.352-4.2032 4.834-7.5658 10.3-10.0877 16.395v39.414c1.261 4.204 3.2575 7.988 5.9896 11.351 2.9422 3.363 6.3048 6.306 10.0877 8.828 3.7829 2.313 7.6709 4.204 11.6639 5.676 4.2033 1.261 8.3014 1.892 12.2945 1.892zM185.885 768.891c0-10.72 2.943-20.074 8.827-28.062 6.095-8.198 14.501-14.504 25.219-18.919 10.719-4.414 23.013-6.621 36.884-6.621 6.935 0 13.975.526 21.121 1.577 7.145 1.051 13.345 2.732 18.599 5.044v-8.828c0-10.51-3.152-18.603-9.457-24.279-6.095-5.675-15.237-8.513-27.426-8.513-9.037 0-17.654 1.577-25.85 4.73-8.196 3.153-16.813 7.777-25.85 13.873l-13.555-27.747c10.928-7.147 22.067-12.507 33.415-16.081 11.559-3.573 23.644-5.36 36.253-5.36 23.538 0 41.822 5.886 54.852 17.657 13.24 11.772 19.86 28.588 19.86 50.449v52.657c0 4.414.736 7.567 2.207 9.459 1.681 1.892 4.308 3.048 7.881 3.468v34.369c-3.783.63-7.25 1.156-10.403 1.576-2.942.421-5.464.631-7.566.631-8.406 0-14.816-1.892-19.229-5.676-4.204-3.783-6.831-8.408-7.881-13.873l-.946-8.513c-7.146 9.249-16.077 16.395-26.796 21.44-10.718 5.045-21.646 7.568-32.785 7.568-10.928 0-20.806-2.207-29.632-6.622-8.617-4.624-15.447-10.825-20.491-18.603-4.834-7.988-7.251-16.921-7.251-26.801zm102.769 8.513c2.312-2.522 4.203-5.044 5.674-7.567 1.471-2.522 2.207-4.835 2.207-6.937v-16.711c-5.044-2.102-10.508-3.679-16.393-4.73-5.884-1.261-11.453-1.891-16.707-1.891-10.929 0-19.966 2.417-27.111 7.252-6.935 4.624-10.403 10.825-10.403 18.603 0 4.204 1.156 8.198 3.468 11.981 2.311 3.784 5.674 6.832 10.087 9.144 4.414 2.313 9.668 3.469 15.762 3.469 6.305 0 12.505-1.156 18.6-3.469 6.094-2.522 11.033-5.57 14.816-9.144zM435.941 820.917c-14.081 0-27.531-2.313-40.351-6.937-12.82-4.625-23.853-11.456-33.101-20.495l15.132-27.432c9.878 7.988 19.545 13.874 29.002 17.658 9.668 3.783 18.915 5.675 27.741 5.675 8.197 0 14.712-1.471 19.545-4.414 5.044-2.943 7.566-7.357 7.566-13.243 0-3.994-1.366-7.042-4.098-9.144-2.732-2.312-6.725-4.309-11.979-5.991-5.044-1.681-11.244-3.573-18.599-5.675-12.19-3.994-22.382-7.883-30.579-11.667-8.196-3.783-14.396-8.513-18.599-14.188-3.993-5.886-5.99-13.348-5.99-22.387 0-10.931 2.733-20.285 8.197-28.063 5.674-7.987 13.45-14.188 23.328-18.603 10.087-4.414 21.856-6.621 35.307-6.621 11.769 0 22.907 1.892 33.415 5.675 10.508 3.574 20.071 9.46 28.687 17.658l-17.023 26.801c-8.406-6.517-16.392-11.246-23.958-14.189-7.566-3.153-15.237-4.73-23.013-4.73-4.413 0-8.616.526-12.61 1.577-3.782 1.051-6.935 2.838-9.457 5.36-2.312 2.312-3.467 5.676-3.467 10.09 0 3.994 1.05 7.147 3.152 9.459 2.312 2.102 5.674 3.994 10.088 5.676 4.623 1.681 10.193 3.573 16.708 5.675 13.24 3.784 24.378 7.673 33.415 11.666 9.247 3.994 16.183 8.934 20.806 14.82 4.624 5.675 6.935 13.558 6.935 23.648 0 16.396-5.989 29.218-17.968 38.467-11.98 9.249-28.057 13.874-48.232 13.874zM604.324 820.917c-13.24 0-25.219-2.207-35.938-6.622-10.718-4.624-19.86-10.825-27.426-18.603-7.565-7.988-13.45-17.026-17.653-27.116-3.993-10.3-5.99-21.126-5.99-32.477 0-15.765 3.468-30.164 10.403-43.197 7.146-13.032 17.234-23.438 30.263-31.215 13.241-7.988 28.792-11.982 46.656-11.982 18.074 0 33.521 3.994 46.341 11.982 12.819 7.777 22.592 18.183 29.317 31.215 6.935 12.823 10.403 26.696 10.403 41.621 0 2.522-.105 5.15-.315 7.882-.21 2.523-.42 4.625-.631 6.307H562.082c.84 8.408 3.257 15.765 7.25 22.071 4.203 6.306 9.457 11.141 15.762 14.504 6.515 3.153 13.451 4.73 20.806 4.73 8.407 0 16.288-1.997 23.643-5.991 7.566-4.204 12.715-9.67 15.447-16.396l36.253 10.09c-3.993 8.408-9.773 15.87-17.338 22.386-7.356 6.517-16.078 11.667-26.165 15.451-10.088 3.573-21.227 5.36-33.416 5.36zm-43.188-99.007h86.376c-.841-8.408-3.257-15.66-7.251-21.756-3.782-6.306-8.826-11.141-15.131-14.504-6.305-3.573-13.345-5.36-21.121-5.36-7.566 0-14.501 1.787-20.806 5.36-6.095 3.363-11.139 8.198-15.132 14.504-3.783 6.096-6.095 13.348-6.935 21.756zM712.966 587.59h42.243v177.202c0 7.568 1.261 12.718 3.783 15.45 2.522 2.523 5.989 3.784 10.403 3.784 3.362 0 6.83-.421 10.403-1.261 3.572-.841 6.725-1.892 9.457-3.153l5.674 32.161c-5.674 2.732-12.294 4.835-19.86 6.306-7.566 1.471-14.396 2.207-20.491 2.207-13.24 0-23.538-3.468-30.893-10.405-7.146-7.147-10.719-17.237-10.719-30.269V587.59zM810.182 817.764V652.543h42.242v165.221h-42.242zm0-188.238V587.59h42.242v41.936h-42.242zM1143.99 817.764h-42.25v-92.7c0-13.033-2.31-22.597-6.93-28.693-4.42-6.307-10.62-9.46-18.6-9.46-8.2 0-16.08 3.259-23.64 9.775-7.36 6.306-12.61 14.609-15.77 24.909v96.169h-42.239v-92.7c0-13.243-2.312-22.913-6.935-29.009-4.414-6.096-10.614-9.144-18.6-9.144-8.196 0-16.077 3.153-23.643 9.46-7.355 6.306-12.609 14.609-15.762 24.909v96.484h-42.242V652.543h38.144v30.585c6.305-10.721 14.711-18.919 25.219-24.594 10.508-5.886 22.593-8.829 36.253-8.829 13.665 0 24.275 3.364 31.835 10.09 7.78 6.727 12.72 15.03 14.82 24.909 6.73-11.351 15.24-19.969 25.54-25.855 10.5-6.096 22.27-9.144 35.3-9.144 10.3 0 18.6 1.892 24.91 5.676 6.51 3.573 11.56 8.513 15.13 14.819 3.57 6.096 5.99 13.033 7.25 20.81 1.47 7.778 2.21 15.661 2.21 23.648v103.106zM1254.21 820.917c-13.24 0-25.22-2.207-35.93-6.622-10.72-4.624-19.86-10.825-27.43-18.603-7.57-7.988-13.45-17.026-17.65-27.116-4-10.3-5.99-21.126-5.99-32.477 0-15.765 3.46-30.164 10.4-43.197 7.15-13.032 17.23-23.438 30.26-31.215 13.24-7.988 28.8-11.982 46.66-11.982 18.07 0 33.52 3.994 46.34 11.982 12.82 7.777 22.59 18.183 29.32 31.215 6.93 12.823 10.4 26.696 10.4 41.621 0 2.522-.11 5.15-.32 7.882-.21 2.523-.42 4.625-.63 6.307h-127.67c.84 8.408 3.26 15.765 7.25 22.071 4.21 6.306 9.46 11.141 15.76 14.504 6.52 3.153 13.45 4.73 20.81 4.73 8.41 0 16.29-1.997 23.64-5.991 7.57-4.204 12.72-9.67 15.45-16.396l36.25 10.09c-3.99 8.408-9.77 15.87-17.34 22.386-7.35 6.517-16.07 11.667-26.16 15.451-10.09 3.573-21.23 5.36-33.42 5.36zm-43.18-99.007h86.37c-.84-8.408-3.26-15.66-7.25-21.756-3.78-6.306-8.83-11.141-15.13-14.504-6.31-3.573-13.35-5.36-21.12-5.36-7.57 0-14.5 1.787-20.81 5.36-6.09 3.363-11.14 8.198-15.13 14.504-3.78 6.096-6.09 13.348-6.93 21.756z" fill="#fff"/></svg>