<svg width="1341" height="821" viewBox="0 0 1341 821" fill="none" xmlns="http://www.w3.org/2000/svg"><path d="M670.48 468.651c129.269 0 234.061-104.815 234.061-234.11C904.541 105.246 799.749.431641 670.48.431641c-39.454 0-76.629 9.764059-109.24 27.008059-12.562 6.6428-14.081 23.4182-4.033 33.4683l58.511 58.523c6.542 6.544 16.346 8.256 25.28 5.85 9.4-2.531 19.283-3.881 29.482-3.881 62.473 0 113.118 50.655 113.118 113.141 0 62.486-50.645 113.141-113.118 113.141-10.235 0-20.152-1.359-29.582-3.908-8.94-2.416-18.756-.707-25.304 5.842l-58.491 58.503c-10.045 10.047-8.53 26.816 4.024 33.464 32.638 17.281 69.853 27.068 109.353 27.068z" fill="#fff"/><path d="M480.063 370.709c7.63 10.656 22.885 11.07 32.151 1.802l54.601-54.612c8.095-8.096 8.667-20.855 3.362-31.002-8.186-15.655-12.814-33.465-12.814-52.356 0-18.924 4.645-36.763 12.857-52.439 5.317-10.149 4.751-22.92-3.35-31.022l-54.589-54.6016c-9.263-9.2648-24.513-8.8545-32.146 1.7936-27.517 38.384-43.716 85.434-43.716 136.269 0 50.79 16.171 97.803 43.644 136.168zM670.48 178.326c31.04 0 56.203 25.169 56.203 56.215 0 31.047-25.163 56.215-56.203 56.215-31.04 0-56.203-25.168-56.203-56.215 0-31.046 25.163-56.215 56.203-56.215zM94.5317 820.43c-12.6097 0-23.8533-2.837-33.7309-8.513-9.8775-5.675-17.6535-13.453-23.3278-23.333v28.693H.589722V587.104H42.8321v93.961c5.8845-9.88 13.5554-17.657 23.0126-23.333 9.6674-5.675 20.911-8.513 33.7308-8.513 10.7185 0 20.4905 2.312 29.3175 6.937 8.827 4.414 16.393 10.615 22.697 18.603 6.515 7.988 11.454 17.131 14.817 27.431 3.572 10.3 5.359 21.336 5.359 33.108 0 11.771-1.997 22.807-5.99 33.107-3.783 10.3-9.142 19.444-16.077 27.431-6.935 7.778-15.132 13.874-24.589 18.288-9.247 4.204-19.44 6.306-30.5783 6.306zm-11.664-35.945c6.7252 0 12.8198-1.261 18.2843-3.783 5.674-2.733 10.508-6.306 14.501-10.721 4.203-4.414 7.355-9.564 9.457-15.45 2.312-6.096 3.468-12.402 3.468-18.918 0-9.039-1.892-17.342-5.675-24.909-3.572-7.778-8.616-13.979-15.131-18.603-6.305-4.625-13.7657-6.937-22.3823-6.937-6.0947 0-11.9792 1.471-17.6536 4.414-5.4641 2.733-10.4029 6.516-14.8163 11.351-4.2032 4.835-7.5658 10.3-10.0877 16.396v39.413c1.2609 4.205 3.2575 7.988 5.9896 11.351 2.9422 3.364 6.3048 6.307 10.0877 8.829 3.7829 2.312 7.6709 4.204 11.6639 5.676 4.2032 1.261 8.3014 1.891 12.2944 1.891zM185.885 768.405c0-10.721 2.942-20.075 8.827-28.062 6.095-8.198 14.501-14.505 25.219-18.919 10.718-4.414 23.013-6.621 36.884-6.621 6.935 0 13.975.525 21.121 1.576 7.145 1.051 13.345 2.733 18.599 5.045v-8.828c0-10.511-3.153-18.604-9.457-24.279-6.095-5.676-15.237-8.513-27.426-8.513-9.037 0-17.654 1.576-25.85 4.729-8.196 3.153-16.813 7.778-25.85 13.874l-13.555-27.747c10.928-7.147 22.067-12.507 33.415-16.081 11.559-3.573 23.643-5.36 36.253-5.36 23.538 0 41.822 5.886 54.852 17.657 13.24 11.772 19.86 28.588 19.86 50.449v52.656c0 4.415.736 7.568 2.207 9.46 1.681 1.891 4.308 3.047 7.881 3.468v34.368c-3.783.631-7.251 1.156-10.403 1.577-2.942.42-5.464.63-7.566.63-8.406 0-14.816-1.891-19.229-5.675-4.204-3.784-6.831-8.408-7.882-13.874l-.945-8.513c-7.146 9.249-16.078 16.396-26.796 21.441-10.718 5.045-21.646 7.567-32.785 7.567-10.928 0-20.806-2.207-29.633-6.621-8.616-4.625-15.446-10.826-20.49-18.603-4.834-7.988-7.251-16.922-7.251-26.801zm102.769 8.513c2.312-2.522 4.203-5.045 5.674-7.567 1.471-2.523 2.207-4.835 2.207-6.937v-16.711c-5.044-2.102-10.508-3.679-16.393-4.73-5.884-1.261-11.453-1.892-16.707-1.892-10.929 0-19.966 2.418-27.111 7.252-6.936 4.625-10.403 10.826-10.403 18.603 0 4.205 1.156 8.198 3.467 11.982 2.312 3.784 5.675 6.832 10.088 9.144 4.414 2.312 9.668 3.468 15.762 3.468 6.305 0 12.505-1.156 18.6-3.468 6.094-2.522 11.033-5.57 14.816-9.144zM435.941 820.43c-14.081 0-27.532-2.312-40.351-6.936-12.82-4.625-23.854-11.456-33.101-20.495l15.132-27.432c9.877 7.988 19.545 13.874 29.002 17.657 9.668 3.784 18.915 5.676 27.741 5.676 8.197 0 14.712-1.472 19.545-4.415 5.044-2.942 7.566-7.357 7.566-13.242 0-3.994-1.366-7.042-4.098-9.144-2.732-2.313-6.725-4.31-11.979-5.991-5.044-1.682-11.244-3.574-18.599-5.676-12.19-3.994-22.383-7.882-30.579-11.666-8.196-3.784-14.396-8.513-18.599-14.189-3.993-5.886-5.99-13.348-5.99-22.387 0-10.93 2.732-20.284 8.197-28.062 5.674-7.988 13.45-14.189 23.327-18.603 10.088-4.414 21.857-6.621 35.307-6.621 11.769 0 22.908 1.891 33.416 5.675 10.508 3.574 20.07 9.459 28.687 17.657l-17.023 26.801c-8.406-6.516-16.393-11.246-23.958-14.188-7.566-3.154-15.237-4.73-23.013-4.73-4.413 0-8.617.525-12.61 1.576-3.783 1.052-6.935 2.838-9.457 5.361-2.312 2.312-3.468 5.675-3.468 10.09 0 3.993 1.051 7.146 3.153 9.459 2.312 2.102 5.674 3.994 10.088 5.675 4.623 1.682 10.192 3.574 16.707 5.676 13.241 3.783 24.379 7.672 33.416 11.666 9.247 3.994 16.182 8.934 20.806 14.819 4.623 5.676 6.935 13.559 6.935 23.648 0 16.396-5.989 29.219-17.969 38.468-11.979 9.249-28.056 13.873-48.231 13.873zM604.324 820.43c-13.24 0-25.22-2.207-35.938-6.621-10.718-4.625-19.86-10.826-27.426-18.603-7.566-7.988-13.45-17.027-17.653-27.117-3.993-10.3-5.99-21.125-5.99-32.476 0-15.765 3.468-30.164 10.403-43.197 7.146-13.033 17.233-23.438 30.263-31.215 13.241-7.988 28.792-11.982 46.656-11.982 18.074 0 33.521 3.994 46.341 11.982 12.819 7.777 22.592 18.182 29.317 31.215 6.935 12.822 10.403 26.696 10.403 41.62 0 2.523-.105 5.15-.315 7.883-.21 2.523-.421 4.625-.631 6.306H562.082c.84 8.408 3.257 15.765 7.25 22.072 4.203 6.306 9.457 11.14 15.762 14.504 6.515 3.153 13.45 4.729 20.806 4.729 8.406 0 16.288-1.997 23.643-5.99 7.566-4.205 12.715-9.67 15.447-16.396l36.253 10.089c-3.993 8.409-9.773 15.871-17.339 22.387-7.355 6.516-16.077 11.667-26.165 15.45-10.087 3.574-21.226 5.36-33.415 5.36zm-43.188-99.006h86.376c-.841-8.408-3.258-15.66-7.251-21.756-3.783-6.306-8.826-11.141-15.131-14.504-6.305-3.574-13.345-5.36-21.121-5.36-7.566 0-14.502 1.786-20.806 5.36-6.095 3.363-11.139 8.198-15.132 14.504-3.783 6.096-6.095 13.348-6.935 21.756zM712.966 587.104h42.243v177.202c0 7.567 1.261 12.717 3.783 15.45 2.522 2.522 5.989 3.784 10.403 3.784 3.362 0 6.83-.421 10.402-1.262 3.573-.841 6.726-1.892 9.458-3.153l5.674 32.162c-5.674 2.732-12.294 4.834-19.86 6.306-7.566 1.471-14.396 2.207-20.491 2.207-13.24 0-23.538-3.469-30.893-10.405-7.146-7.147-10.719-17.237-10.719-30.27V587.104zM810.181 817.277v-165.22h42.243v165.22h-42.243zm0-188.238v-41.935h42.243v41.935h-42.243zM1143.99 817.277h-42.25v-92.7c0-13.032-2.31-22.597-6.93-28.693-4.42-6.306-10.62-9.459-18.6-9.459-8.2 0-16.08 3.258-23.64 9.775-7.36 6.306-12.61 14.609-15.77 24.909v96.168h-42.239v-92.7c0-13.243-2.312-22.912-6.936-29.008-4.413-6.096-10.613-9.144-18.599-9.144-8.196 0-16.077 3.153-23.643 9.459-7.356 6.306-12.61 14.609-15.762 24.909v96.484h-42.242v-165.22h38.144v30.584c6.305-10.72 14.711-18.918 25.219-24.594 10.508-5.885 22.592-8.828 36.253-8.828 13.665 0 24.275 3.363 31.835 10.09 7.78 6.726 12.72 15.029 14.82 24.909 6.73-11.351 15.24-19.969 25.54-25.855 10.5-6.096 22.27-9.144 35.3-9.144 10.3 0 18.6 1.892 24.91 5.675 6.51 3.574 11.56 8.514 15.13 14.82 3.57 6.096 5.99 13.033 7.25 20.81 1.47 7.778 2.21 15.66 2.21 23.648v103.105zM1254.21 820.43c-13.24 0-25.22-2.207-35.93-6.621-10.72-4.625-19.86-10.826-27.43-18.603-7.57-7.988-13.45-17.027-17.65-27.117-4-10.3-5.99-21.125-5.99-32.476 0-15.765 3.46-30.164 10.4-43.197 7.15-13.033 17.23-23.438 30.26-31.215 13.24-7.988 28.8-11.982 46.66-11.982 18.07 0 33.52 3.994 46.34 11.982 12.82 7.777 22.59 18.182 29.32 31.215 6.93 12.822 10.4 26.696 10.4 41.62 0 2.523-.11 5.15-.32 7.883-.21 2.523-.42 4.625-.63 6.306h-127.67c.84 8.408 3.26 15.765 7.25 22.072 4.2 6.306 9.46 11.14 15.76 14.504 6.52 3.153 13.45 4.729 20.81 4.729 8.41 0 16.29-1.997 23.64-5.99 7.57-4.205 12.72-9.67 15.45-16.396l36.25 10.089c-3.99 8.409-9.77 15.871-17.34 22.387-7.35 6.516-16.07 11.667-26.16 15.45-10.09 3.574-21.23 5.36-33.42 5.36zm-43.18-99.006h86.37c-.84-8.408-3.26-15.66-7.25-21.756-3.78-6.306-8.83-11.141-15.13-14.504-6.31-3.574-13.35-5.36-21.12-5.36-7.57 0-14.5 1.786-20.81 5.36-6.09 3.363-11.14 8.198-15.13 14.504-3.78 6.096-6.09 13.348-6.93 21.756z" fill="#fff"/></svg>