<svg width="2000" height="2000" viewBox="0 0 2000 2000" fill="none" xmlns="http://www.w3.org/2000/svg">
<rect width="2000" height="2000" fill="white"/>
<rect width="1203.76" height="1203.76" transform="translate(398.236 398.426)" fill="white"/>
<path d="M1000.12 1602.19C1332.53 1602.19 1602 1332.72 1602 1000.31C1602 667.897 1332.53 398.426 1000.12 398.426C898.69 398.426 803.123 423.514 719.282 467.825C686.938 484.918 683.027 528.096 708.895 553.964L859.267 704.335C876.108 721.177 901.349 725.584 924.349 719.395C948.506 712.895 973.907 709.429 1000.12 709.429C1160.77 709.429 1291 839.659 1291 1000.31C1291 1160.96 1160.77 1291.19 1000.12 1291.19C973.815 1291.19 948.326 1287.7 924.092 1281.15C901.076 1274.94 875.805 1279.33 858.947 1296.19L708.629 1446.51C682.769 1472.37 686.667 1515.53 718.991 1532.64C802.902 1577.04 898.573 1602.19 1000.12 1602.19Z" fill="#1B1C1F"/>
<path d="M510.423 1350.33C530.063 1377.76 569.337 1378.83 593.191 1354.97L733.505 1214.66C754.344 1193.82 755.814 1160.98 742.163 1134.86C721.132 1094.62 709.239 1048.85 709.239 1000.31C709.239 951.675 721.174 905.831 742.274 865.543C755.957 839.416 754.501 806.546 733.646 785.691L593.362 645.407C569.515 621.56 530.257 622.616 510.609 650.025C439.875 748.697 398.236 869.64 398.236 1000.31C398.236 1130.86 439.802 1251.71 510.423 1350.33Z" fill="#1B1C1F"/>
<path d="M1000.12 855.783C1079.94 855.783 1144.64 920.489 1144.64 1000.31C1144.64 1080.13 1079.94 1144.83 1000.12 1144.83C920.299 1144.83 855.593 1080.13 855.593 1000.31C855.593 920.489 920.299 855.783 1000.12 855.783Z" fill="#1B1C1F"/>
</svg>
