<svg width="2001" height="2000" viewBox="0 0 2001 2000" fill="none" xmlns="http://www.w3.org/2000/svg">
<rect width="2000" height="2000" transform="translate(0.870117)" fill="#131416"/>
<path d="M1000.5 1601C1332.7 1601 1602 1331.7 1602 999.5C1602 667.301 1332.7 398 1000.5 398C899.137 398 803.629 423.073 719.842 467.355C687.519 484.437 683.611 527.588 709.462 553.439L859.738 703.715C876.569 720.546 901.794 724.95 924.779 718.766C948.921 712.27 974.306 708.806 1000.5 708.806C1161.05 708.805 1291.19 838.954 1291.19 999.5C1291.19 1160.05 1161.05 1290.19 1000.5 1290.19C974.213 1290.19 948.741 1286.71 924.522 1280.16C901.52 1273.95 876.265 1278.35 859.418 1295.2L709.195 1445.42C683.352 1471.26 687.248 1514.4 719.551 1531.49C803.409 1575.87 899.02 1601 1000.5 1601Z" fill="#A8E840"/>
<path d="M511.115 1349.3C530.743 1376.71 569.992 1377.78 593.831 1353.94L734.056 1213.71C754.881 1192.89 756.351 1160.07 742.708 1133.97C721.691 1093.76 709.805 1048.02 709.805 999.5C709.805 950.899 721.733 905.083 742.819 864.821C756.494 838.711 755.039 805.861 734.197 785.02L594.002 644.824C570.17 620.993 530.937 622.048 511.301 649.44C440.613 748.049 399 868.915 399 999.5C399 1129.97 440.54 1250.74 511.115 1349.3Z" fill="#A8E840"/>
<path d="M1000.5 855.067C1080.27 855.067 1144.93 919.732 1144.93 999.5C1144.93 1079.27 1080.27 1143.93 1000.5 1143.93C920.732 1143.93 856.067 1079.27 856.067 999.5C856.067 919.732 920.732 855.067 1000.5 855.067Z" fill="#A8E840"/>
</svg>
