<svg width="2000" height="2000" viewBox="0 0 2000 2000" fill="none" xmlns="http://www.w3.org/2000/svg">
<rect width="2000" height="2000" fill="url(#paint0_linear_1429_3964)"/>
<path d="M999.63 1601C1331.83 1601 1601.13 1331.7 1601.13 999.5C1601.13 667.301 1331.83 398 999.63 398C898.267 398 802.759 423.073 718.972 467.355C686.649 484.437 682.74 527.588 708.592 553.439L858.868 703.715C875.699 720.546 900.924 724.95 923.908 718.766C948.051 712.27 973.436 708.806 999.63 708.806C1160.18 708.805 1290.32 838.954 1290.32 999.5C1290.32 1160.05 1160.18 1290.19 999.63 1290.19C973.343 1290.19 947.871 1286.71 923.652 1280.16C900.65 1273.95 875.395 1278.35 858.548 1295.2L708.325 1445.42C682.482 1471.26 686.378 1514.4 718.681 1531.49C802.539 1575.87 898.149 1601 999.63 1601Z" fill="black"/>
<path d="M510.245 1349.3C529.873 1376.71 569.122 1377.78 592.961 1353.94L733.185 1213.71C754.011 1192.89 755.481 1160.07 741.838 1133.97C720.821 1093.76 708.935 1048.02 708.935 999.5C708.935 950.899 720.862 905.083 741.949 864.821C755.624 838.711 754.169 805.861 733.327 785.02L593.132 644.824C569.3 620.993 530.067 622.048 510.431 649.44C439.743 748.049 398.13 868.915 398.13 999.5C398.13 1129.97 439.67 1250.74 510.245 1349.3Z" fill="black"/>
<path d="M999.63 855.067C1079.4 855.067 1144.06 919.732 1144.06 999.5C1144.06 1079.27 1079.4 1143.93 999.63 1143.93C919.862 1143.93 855.197 1079.27 855.197 999.5C855.197 919.732 919.862 855.067 999.63 855.067Z" fill="black"/>
<defs>
<linearGradient id="paint0_linear_1429_3964" x1="1999.2" y1="-9.19995e-05" x2="-1087.8" y2="3086.99" gradientUnits="userSpaceOnUse">
<stop stop-color="#B5FF3D"/>
<stop offset="1" stop-color="#54B86A"/>
</linearGradient>
</defs>
</svg>
