<?xml version="1.0" encoding="UTF-8"?>
<svg id="Layer_1" data-name="Layer 1" xmlns="http://www.w3.org/2000/svg" viewBox="0 0 1340 820">
  <defs>
    <style>
      .cls-1 {
        fill: #fff;
      }
    </style>
  </defs>
  <path class="cls-1" d="m669.89,468.22c129.27,0,234.06-104.82,234.06-234.11S799.16,0,669.89,0c-39.45,0-76.63,9.76-109.24,27.01-12.56,6.64-14.08,23.42-4.03,33.47l58.51,58.52c6.54,6.54,16.35,8.26,25.28,5.85,9.4-2.53,19.28-3.88,29.48-3.88,62.47,0,113.12,50.65,113.12,113.14s-50.65,113.14-113.12,113.14c-10.23,0-20.15-1.36-29.58-3.91-8.94-2.42-18.76-.71-25.3,5.84l-58.49,58.5c-10.04,10.05-8.53,26.82,4.02,33.46,32.64,17.28,69.85,27.07,109.35,27.07h0Z"/>
  <path class="cls-1" d="m479.47,370.28c7.63,10.66,22.89,11.07,32.15,1.8l54.6-54.61c8.09-8.1,8.67-20.86,3.36-31-8.19-15.65-12.81-33.46-12.81-52.36s4.65-36.76,12.86-52.44c5.32-10.15,4.75-22.92-3.35-31.02l-54.59-54.6c-9.26-9.26-24.51-8.85-32.15,1.79-27.52,38.38-43.72,85.43-43.72,136.27s16.17,97.8,43.64,136.17h0Zm190.42-192.38c31.04,0,56.2,25.17,56.2,56.21s-25.16,56.22-56.2,56.22-56.2-25.17-56.2-56.21,25.16-56.21,56.2-56.21h0ZM93.94,820c-12.61,0-23.85-2.84-33.73-8.51-9.88-5.67-17.65-13.45-23.33-23.33v28.69H0v-230.17h42.24v93.96c5.88-9.88,13.56-17.66,23.01-23.33,9.67-5.67,20.91-8.51,33.73-8.51,10.72,0,20.49,2.31,29.32,6.94,8.83,4.41,16.39,10.61,22.7,18.6,6.51,7.99,11.45,17.13,14.82,27.43,3.57,10.3,5.36,21.34,5.36,33.11s-2,22.81-5.99,33.11c-3.78,10.3-9.14,19.44-16.08,27.43-6.93,7.78-15.13,13.87-24.59,18.29-9.25,4.2-19.44,6.31-30.58,6.31h0Zm-11.66-35.95c6.73,0,12.82-1.26,18.28-3.78,5.67-2.73,10.51-6.31,14.5-10.72,4.2-4.41,7.36-9.56,9.46-15.45,2.31-6.1,3.47-12.4,3.47-18.92,0-9.04-1.89-17.34-5.68-24.91-3.57-7.78-8.62-13.98-15.13-18.6-6.31-4.62-13.77-6.94-22.38-6.94-6.09,0-11.98,1.47-17.65,4.41-5.46,2.73-10.4,6.52-14.82,11.35-4.2,4.84-7.57,10.3-10.09,16.4v39.41c1.26,4.21,3.26,7.99,5.99,11.35,2.94,3.36,6.3,6.31,10.09,8.83,3.78,2.31,7.67,4.2,11.66,5.68,4.2,1.26,8.3,1.89,12.29,1.89h0Zm103.02-16.08c0-10.72,2.94-20.08,8.83-28.06,6.1-8.2,14.5-14.51,25.22-18.92,10.72-4.41,23.01-6.62,36.88-6.62,6.93,0,13.98.53,21.12,1.58,7.14,1.05,13.35,2.73,18.6,5.04v-8.83c0-10.51-3.15-18.6-9.46-24.28-6.1-5.68-15.24-8.51-27.43-8.51-9.04,0-17.65,1.58-25.85,4.73-8.2,3.15-16.81,7.78-25.85,13.87l-13.55-27.75c10.93-7.15,22.07-12.51,33.42-16.08,11.56-3.57,23.64-5.36,36.25-5.36,23.54,0,41.82,5.89,54.85,17.66,13.24,11.77,19.86,28.59,19.86,50.45v52.66c0,4.41.74,7.57,2.21,9.46,1.68,1.89,4.31,3.05,7.88,3.47v34.37c-3.78.63-7.25,1.16-10.4,1.58-2.94.42-5.46.63-7.57.63-8.41,0-14.82-1.89-19.23-5.67-4.2-3.78-6.83-8.41-7.88-13.87l-.95-8.51c-7.15,9.25-16.08,16.4-26.8,21.44s-21.65,7.57-32.79,7.57-20.81-2.21-29.63-6.62c-8.62-4.62-15.45-10.83-20.49-18.6-4.83-7.99-7.25-16.92-7.25-26.8h0Zm102.77,8.51c2.31-2.52,4.2-5.04,5.67-7.57,1.47-2.52,2.21-4.84,2.21-6.94v-16.71c-5.04-2.1-10.51-3.68-16.39-4.73-5.88-1.26-11.45-1.89-16.71-1.89-10.93,0-19.97,2.42-27.11,7.25-6.94,4.62-10.4,10.83-10.4,18.6,0,4.21,1.16,8.2,3.47,11.98,2.31,3.78,5.68,6.83,10.09,9.14,4.41,2.31,9.67,3.47,15.76,3.47s12.5-1.16,18.6-3.47c6.09-2.52,11.03-5.57,14.82-9.14Zm147.29,43.51c-14.08,0-27.53-2.31-40.35-6.94-12.82-4.62-23.85-11.46-33.1-20.49l15.13-27.43c9.88,7.99,19.55,13.87,29,17.66,9.67,3.78,18.92,5.68,27.74,5.68,8.2,0,14.71-1.47,19.55-4.41,5.04-2.94,7.57-7.36,7.57-13.24,0-3.99-1.37-7.04-4.1-9.14-2.73-2.31-6.73-4.31-11.98-5.99-5.04-1.68-11.24-3.57-18.6-5.68-12.19-3.99-22.38-7.88-30.58-11.67s-14.4-8.51-18.6-14.19c-3.99-5.89-5.99-13.35-5.99-22.39,0-10.93,2.73-20.28,8.2-28.06,5.67-7.99,13.45-14.19,23.33-18.6,10.09-4.41,21.86-6.62,35.31-6.62,11.77,0,22.91,1.89,33.42,5.67,10.51,3.57,20.07,9.46,28.69,17.66l-17.02,26.8c-8.41-6.52-16.39-11.25-23.96-14.19-7.57-3.15-15.24-4.73-23.01-4.73-4.41,0-8.62.53-12.61,1.58-3.78,1.05-6.93,2.84-9.46,5.36-2.31,2.31-3.47,5.67-3.47,10.09,0,3.99,1.05,7.15,3.15,9.46,2.31,2.1,5.67,3.99,10.09,5.67,4.62,1.68,10.19,3.57,16.71,5.68,13.24,3.78,24.38,7.67,33.42,11.67,9.25,3.99,16.18,8.93,20.81,14.82,4.62,5.68,6.93,13.56,6.93,23.65,0,16.4-5.99,29.22-17.97,38.47-11.98,9.25-28.06,13.87-48.23,13.87h0Zm168.38,0c-13.24,0-25.22-2.21-35.94-6.62-10.72-4.62-19.86-10.83-27.43-18.6-7.57-7.99-13.45-17.03-17.65-27.12-3.99-10.3-5.99-21.12-5.99-32.48,0-15.77,3.47-30.16,10.4-43.2,7.15-13.03,17.23-23.44,30.26-31.22,13.24-7.99,28.79-11.98,46.66-11.98s33.52,3.99,46.34,11.98c12.82,7.78,22.59,18.18,29.32,31.22,6.93,12.82,10.4,26.7,10.4,41.62,0,2.52-.1,5.15-.32,7.88-.21,2.52-.42,4.62-.63,6.31h-127.67c.84,8.41,3.26,15.77,7.25,22.07,4.2,6.31,9.46,11.14,15.76,14.5,6.52,3.15,13.45,4.73,20.81,4.73,8.41,0,16.29-2,23.64-5.99,7.57-4.21,12.72-9.67,15.45-16.4l36.25,10.09c-3.99,8.41-9.77,15.87-17.34,22.39-7.35,6.52-16.08,11.67-26.16,15.45-10.09,3.57-21.23,5.36-33.41,5.36h0Zm-43.19-99.01h86.38c-.84-8.41-3.26-15.66-7.25-21.76-3.78-6.31-8.83-11.14-15.13-14.5-6.3-3.57-13.34-5.36-21.12-5.36s-14.5,1.79-20.81,5.36c-6.09,3.36-11.14,8.2-15.13,14.5-3.78,6.1-6.09,13.35-6.93,21.76Zm151.83-134.32h42.24v177.2c0,7.57,1.26,12.72,3.78,15.45,2.52,2.52,5.99,3.78,10.4,3.78,3.36,0,6.83-.42,10.4-1.26,3.57-.84,6.73-1.89,9.46-3.15l5.67,32.16c-5.67,2.73-12.29,4.83-19.86,6.31-7.57,1.47-14.4,2.21-20.49,2.21-13.24,0-23.54-3.47-30.89-10.41-7.15-7.15-10.72-17.24-10.72-30.27v-192.02Zm97.22,230.17v-165.22h42.24v165.22h-42.24Zm0-188.24v-41.93h42.24v41.93h-42.24Zm333.81,188.24h-42.25v-92.7c0-13.03-2.31-22.6-6.93-28.69-4.42-6.31-10.62-9.46-18.6-9.46s-16.08,3.26-23.64,9.78c-7.36,6.31-12.61,14.61-15.77,24.91v96.17h-42.24v-92.7c0-13.24-2.31-22.91-6.94-29.01-4.41-6.1-10.61-9.14-18.6-9.14s-16.08,3.15-23.64,9.46c-7.36,6.31-12.61,14.61-15.76,24.91v96.48h-42.24v-165.22h38.14v30.58c6.3-10.72,14.71-18.92,25.22-24.59,10.51-5.89,22.59-8.83,36.25-8.83s24.28,3.36,31.84,10.09c7.78,6.73,12.72,15.03,14.82,24.91,6.73-11.35,15.24-19.97,25.54-25.85,10.5-6.1,22.27-9.14,35.3-9.14,10.3,0,18.6,1.89,24.91,5.67,6.51,3.57,11.56,8.51,15.13,14.82,3.57,6.1,5.99,13.03,7.25,20.81,1.47,7.78,2.21,15.66,2.21,23.65v103.1h0Zm110.22,3.15c-13.24,0-25.22-2.21-35.93-6.62-10.72-4.62-19.86-10.83-27.43-18.6-7.57-7.99-13.45-17.03-17.65-27.12-4-10.3-5.99-21.12-5.99-32.48,0-15.77,3.46-30.16,10.4-43.2,7.15-13.03,17.23-23.44,30.26-31.22,13.24-7.99,28.8-11.98,46.66-11.98s33.52,3.99,46.34,11.98c12.82,7.78,22.59,18.18,29.32,31.22,6.93,12.82,10.4,26.7,10.4,41.62,0,2.52-.11,5.15-.32,7.88-.21,2.52-.42,4.62-.63,6.31h-127.67c.84,8.41,3.26,15.77,7.25,22.07,4.2,6.31,9.46,11.14,15.76,14.5,6.52,3.15,13.45,4.73,20.81,4.73,8.41,0,16.29-2,23.64-5.99,7.57-4.21,12.72-9.67,15.45-16.4l36.25,10.09c-3.99,8.41-9.77,15.87-17.34,22.39-7.35,6.52-16.07,11.67-26.16,15.45-10.09,3.57-21.23,5.36-33.42,5.36h0Zm-43.18-99.01h86.37c-.84-8.41-3.26-15.66-7.25-21.76-3.78-6.31-8.83-11.14-15.13-14.5-6.31-3.57-13.35-5.36-21.12-5.36s-14.5,1.79-20.81,5.36c-6.09,3.36-11.14,8.2-15.13,14.5-3.78,6.1-6.09,13.35-6.93,21.76h0Z"/>
</svg>