<?xml version="1.0" encoding="UTF-8"?>
<svg id="Layer_1" data-name="Layer 1" xmlns="http://www.w3.org/2000/svg" viewBox="0 0 1809 351">
  <path d="m175.65,351c97.01,0,175.65-78.57,175.65-175.5S272.65,0,175.65,0c-29.6,0-57.49,7.32-81.95,20.24-9.44,4.98-10.58,17.57-3.03,25.12l43.88,43.85c4.92,4.91,12.28,6.2,18.99,4.39,7.05-1.9,14.46-2.91,22.11-2.91,46.88,0,84.89,37.97,84.89,84.82s-38.01,84.82-84.89,84.82c-7.68,0-15.11-1.02-22.19-2.93-6.72-1.81-14.09-.53-19.01,4.39l-43.87,43.83c-7.55,7.54-6.41,20.13,3.02,25.11,24.49,12.95,52.41,20.28,82.04,20.28h0Z"/>
  <path d="m32.74,277.56c5.73,8,17.19,8.31,24.16,1.35l40.95-40.91c6.08-6.08,6.51-15.65,2.53-23.27-6.14-11.73-9.61-25.08-9.61-39.23s3.48-27.55,9.64-39.29c3.99-7.62,3.57-17.2-2.52-23.28l-40.94-40.9c-6.96-6.95-18.42-6.65-24.15,1.35C12.15,102.13,0,137.4,0,175.5s12.13,73.3,32.74,102.06Zm142.91-144.2c23.29,0,42.18,18.87,42.18,42.14s-18.88,42.14-42.18,42.14-42.18-18.87-42.18-42.14,18.88-42.14,42.18-42.14Zm387.06,158.91c-12.61,0-23.86-2.83-33.74-8.51-9.88-5.67-17.66-13.44-23.33-23.31v28.67h-36.89V59.14h42.25v93.88c5.89-9.87,13.56-17.64,23.02-23.31,9.67-5.67,20.91-8.51,33.74-8.51,10.72,0,20.49,2.31,29.32,6.93,8.83,4.41,16.4,10.61,22.7,18.59,6.52,7.98,11.46,17.12,14.82,27.41,3.57,10.29,5.36,21.32,5.36,33.08s-2,22.79-5.99,33.08c-3.78,10.29-9.14,19.43-16.08,27.41-6.94,7.77-15.13,13.86-24.59,18.27-9.25,4.2-19.44,6.3-30.58,6.3h0Zm-11.67-35.92c6.73,0,12.82-1.26,18.29-3.78,5.67-2.73,10.51-6.3,14.5-10.71,4.2-4.41,7.36-9.56,9.46-15.44,2.31-6.09,3.47-12.39,3.47-18.9,0-9.03-1.89-17.33-5.68-24.89-3.57-7.77-8.62-13.97-15.13-18.59-6.31-4.62-13.77-6.93-22.39-6.93-6.1,0-11.98,1.47-17.66,4.41-5.47,2.73-10.41,6.51-14.82,11.34-4.2,4.83-7.57,10.29-10.09,16.38v39.38c1.26,4.2,3.26,7.98,5.99,11.34,2.94,3.36,6.31,6.3,10.09,8.82,3.78,2.31,7.67,4.2,11.67,5.67,4.2,1.26,8.3,1.89,12.3,1.89h0Zm103.04-16.07c0-10.71,2.94-20.06,8.83-28.04,6.09-8.19,14.5-14.49,25.22-18.9,10.72-4.41,23.02-6.62,36.89-6.62,6.94,0,13.98.52,21.12,1.57s13.35,2.73,18.6,5.04v-8.82c0-10.5-3.15-18.59-9.46-24.26-6.1-5.67-15.24-8.51-27.43-8.51-9.04,0-17.66,1.58-25.85,4.73s-16.82,7.77-25.85,13.86l-13.56-27.72c10.93-7.14,22.07-12.5,33.42-16.07,11.56-3.57,23.65-5.36,36.26-5.36,23.54,0,41.83,5.88,54.86,17.64,13.24,11.76,19.86,28.56,19.86,50.41v52.61c0,4.41.74,7.56,2.21,9.45,1.68,1.89,4.31,3.04,7.88,3.46v34.34c-3.78.63-7.25,1.15-10.41,1.58-2.94.42-5.47.63-7.57.63-8.41,0-14.82-1.89-19.23-5.67-4.2-3.78-6.83-8.4-7.88-13.86l-.95-8.51c-7.15,9.24-16.08,16.38-26.8,21.42-10.72,5.04-21.65,7.56-32.79,7.56s-20.81-2.2-29.64-6.62c-8.62-4.62-15.45-10.82-20.49-18.59-4.84-7.98-7.25-16.91-7.25-26.78h0Zm102.79,8.51c2.31-2.52,4.2-5.04,5.68-7.56,1.47-2.52,2.21-4.83,2.21-6.93v-16.7c-5.04-2.1-10.51-3.68-16.4-4.73-5.89-1.26-11.46-1.89-16.71-1.89-10.93,0-19.97,2.41-27.12,7.25-6.94,4.62-10.41,10.82-10.41,18.59,0,4.2,1.16,8.19,3.47,11.97,2.31,3.78,5.67,6.83,10.09,9.14,4.41,2.31,9.67,3.46,15.77,3.46s12.51-1.15,18.6-3.46c6.1-2.52,11.04-5.57,14.82-9.14h0Zm147.31,43.48c-14.08,0-27.54-2.31-40.36-6.93-12.82-4.62-23.86-11.45-33.11-20.48l15.13-27.41c9.88,7.98,19.55,13.86,29.01,17.64,9.67,3.78,18.92,5.67,27.75,5.67,8.2,0,14.71-1.47,19.55-4.41,5.04-2.94,7.57-7.35,7.57-13.23,0-3.99-1.37-7.04-4.1-9.14-2.73-2.31-6.73-4.31-11.98-5.99-5.04-1.68-11.25-3.57-18.6-5.67-12.19-3.99-22.39-7.88-30.58-11.66-8.2-3.78-14.4-8.51-18.6-14.18-3.99-5.88-5.99-13.34-5.99-22.37,0-10.92,2.73-20.27,8.2-28.04,5.68-7.98,13.45-14.18,23.33-18.59,10.09-4.41,21.86-6.62,35.31-6.62,11.77,0,22.91,1.89,33.42,5.67,10.51,3.57,20.08,9.45,28.69,17.64l-17.03,26.78c-8.41-6.51-16.4-11.24-23.96-14.18-7.57-3.15-15.24-4.73-23.02-4.73-4.41,0-8.62.52-12.61,1.58-3.78,1.05-6.94,2.84-9.46,5.35-2.31,2.31-3.47,5.67-3.47,10.08,0,3.99,1.05,7.14,3.15,9.45,2.31,2.1,5.68,3.99,10.09,5.67,4.62,1.68,10.2,3.57,16.71,5.67,13.24,3.78,24.38,7.67,33.42,11.66,9.25,3.99,16.18,8.93,20.81,14.81,4.62,5.67,6.94,13.55,6.94,23.63,0,16.38-5.99,29.19-17.97,38.43-11.98,9.24-28.06,13.86-48.24,13.86h0Zm168.42,0c-13.25,0-25.23-2.2-35.95-6.62-10.72-4.62-19.86-10.82-27.43-18.59-7.57-7.98-13.45-17.01-17.66-27.09-3.99-10.29-5.99-21.11-5.99-32.45,0-15.75,3.47-30.14,10.41-43.16,7.15-13.02,17.24-23.42,30.27-31.19,13.24-7.98,28.8-11.97,46.66-11.97s33.53,3.99,46.35,11.97c12.82,7.77,22.6,18.17,29.32,31.19,6.94,12.81,10.41,26.67,10.41,41.58,0,2.52-.11,5.15-.32,7.88-.21,2.52-.42,4.62-.63,6.3h-127.69c.84,8.4,3.26,15.75,7.25,22.05,4.2,6.3,9.46,11.13,15.76,14.49,6.52,3.15,13.46,4.73,20.81,4.73,8.41,0,16.29-1.99,23.65-5.99,7.57-4.2,12.72-9.66,15.45-16.38l36.26,10.08c-3.99,8.4-9.77,15.86-17.34,22.37-7.36,6.51-16.08,11.66-26.17,15.44-10.09,3.57-21.23,5.36-33.42,5.36Zm-43.2-98.92h86.39c-.84-8.4-3.25-15.65-7.25-21.74-3.78-6.3-8.83-11.13-15.13-14.49-6.31-3.57-13.35-5.36-21.13-5.36s-14.5,1.79-20.81,5.36c-6.09,3.36-11.14,8.19-15.13,14.49-3.79,6.09-6.1,13.34-6.94,21.74Zm151.86-134.21h42.25v177.05c0,7.56,1.26,12.71,3.78,15.44,2.53,2.52,6,3.78,10.41,3.78,3.36,0,6.83-.42,10.4-1.26,3.58-.84,6.73-1.89,9.46-3.15l5.68,32.13c-5.68,2.73-12.3,4.83-19.87,6.3-7.56,1.47-14.39,2.2-20.49,2.2-13.24,0-23.54-3.47-30.9-10.4-7.15-7.14-10.72-17.22-10.72-30.24V59.14h0Zm97.23,229.98V124.04h42.25v165.08h-42.25Zm0-188.08v-41.9h42.25v41.9h-42.25Zm333.87,188.08h-42.25v-92.62c0-13.02-2.31-22.58-6.94-28.67-4.41-6.3-10.61-9.45-18.6-9.45s-16.08,3.26-23.65,9.77c-7.35,6.3-12.61,14.6-15.76,24.89v96.09h-42.25v-92.62c0-13.23-2.31-22.89-6.94-28.98-4.41-6.09-10.61-9.14-18.6-9.14s-16.08,3.15-23.65,9.45c-7.36,6.3-12.61,14.6-15.76,24.89v96.4h-42.25V124.04h38.15v30.56c6.3-10.71,14.71-18.9,25.22-24.57,10.51-5.88,22.6-8.82,36.26-8.82s24.28,3.36,31.85,10.08c7.77,6.72,12.71,15.02,14.82,24.89,6.72-11.34,15.24-19.95,25.54-25.83,10.51-6.09,22.28-9.14,35.31-9.14,10.3,0,18.6,1.89,24.91,5.67,6.51,3.57,11.56,8.51,15.13,14.81,3.58,6.09,5.99,13.02,7.25,20.79,1.48,7.77,2.21,15.65,2.21,23.63v103.02h0Zm110.25,3.15c-13.24,0-25.22-2.2-35.94-6.62-10.72-4.62-19.87-10.82-27.43-18.59-7.57-7.98-13.46-17.01-17.66-27.09-4-10.29-5.99-21.11-5.99-32.45,0-15.75,3.47-30.14,10.4-43.16,7.15-13.02,17.24-23.42,30.27-31.19,13.24-7.98,28.8-11.97,46.67-11.97s33.52,3.99,46.35,11.97c12.82,7.77,22.59,18.17,29.32,31.19,6.93,12.81,10.4,26.67,10.4,41.58,0,2.52-.1,5.15-.31,7.88-.21,2.52-.42,4.62-.63,6.3h-127.7c.84,8.4,3.26,15.75,7.25,22.05,4.21,6.3,9.46,11.13,15.77,14.49,6.51,3.15,13.45,4.73,20.81,4.73,8.41,0,16.29-1.99,23.64-5.99,7.57-4.2,12.72-9.66,15.45-16.38l36.26,10.08c-3.99,8.4-9.77,15.86-17.34,22.37-7.35,6.51-16.08,11.66-26.17,15.44-10.09,3.57-21.23,5.36-33.42,5.36Zm-43.2-98.92h86.4c-.84-8.4-3.26-15.65-7.25-21.74-3.79-6.3-8.83-11.13-15.14-14.49-6.31-3.57-13.35-5.36-21.12-5.36s-14.51,1.79-20.81,5.36c-6.1,3.36-11.15,8.19-15.14,14.49-3.78,6.09-6.09,13.34-6.94,21.74Z"/>
</svg>